<?xml version="1.0" encoding="utf-8"?>
<!-- Generator: Adobe Illustrator 19.2.1, SVG Export Plug-In . SVG Version: 6.00 Build 0)  -->
<svg version="1.1" id="Ebene_1" xmlns="http://www.w3.org/2000/svg" xmlns:xlink="http://www.w3.org/1999/xlink" x="0px" y="0px"
	 viewBox="0 0 128 128" style="enable-background:new 0 0 128 128;" xml:space="preserve">
<style type="text/css">
	.st0{opacity:0.3;fill:url(#path3146_1_);enable-background:new    ;}
	.st1{fill:#030303;stroke:#030303;stroke-width:1.4;stroke-opacity:0.5507;}
	.st2{fill:#333333;}
	.st3{fill:#030303;}
	.st4{fill:#565854;}
	.st5{opacity:0.7959;fill:url(#path55989_1_);enable-background:new    ;}
	.st6{fill:#B5B6B5;stroke:#030303;stroke-width:0.472;stroke-linecap:round;stroke-linejoin:round;stroke-opacity:0.4831;}
	.st7{fill:none;stroke:#030303;stroke-width:0.772;stroke-linecap:round;stroke-linejoin:round;stroke-opacity:0.5676;}
	
		.st8{opacity:0.4931;fill:none;stroke:#030303;stroke-width:0.972;stroke-linecap:round;stroke-linejoin:round;enable-background:new    ;}
	.st9{fill:#BBBDB6;}
	.st10{fill:url(#path12666_1_);}
	.st11{opacity:0.6697;fill:url(#path11783_1_);enable-background:new    ;}
	.st12{opacity:0.6697;fill:url(#path16168_1_);enable-background:new    ;}
	
		.st13{opacity:0.6743;fill:#2F3436;stroke:#030303;stroke-width:0.4387;stroke-linecap:round;stroke-linejoin:round;enable-background:new    ;}
	.st14{opacity:0.3968;fill:url(#path18799_1_);enable-background:new    ;}
	
		.st15{opacity:0.3968;fill:url(#path20559_1_);stroke:url(#path20559_2_);stroke-width:1.372;stroke-linecap:round;stroke-linejoin:round;enable-background:new    ;}
	.st16{opacity:0.9541;fill:url(#path22328_1_);enable-background:new    ;}
	.st17{opacity:0.6628;fill:url(#path37315_1_);enable-background:new    ;}
	.st18{opacity:0.6628;fill:url(#path39944_1_);enable-background:new    ;}
	.st19{fill:none;stroke:#030303;stroke-width:0.472;stroke-linecap:round;stroke-linejoin:round;stroke-opacity:0.7077;}
	.st20{fill:#565656;}
	.st21{fill:url(#path40827_1_);}
	.st22{fill:url(#path41710_1_);}
	.st23{fill:url(#path45344_1_);}
	.st24{opacity:0.8;fill:url(#path57748_1_);enable-background:new    ;}
	.st25{fill:url(#path44375_1_);}
	.st26{opacity:0.6697;fill:url(#path44377_1_);enable-background:new    ;}
	.st27{opacity:0.6697;fill:url(#path44379_1_);enable-background:new    ;}
	.st28{opacity:0.3968;fill:url(#path44383_1_);enable-background:new    ;}
	
		.st29{opacity:0.3968;fill:url(#path44385_1_);stroke:url(#path44385_2_);stroke-width:1.372;stroke-linecap:round;stroke-linejoin:round;enable-background:new    ;}
	.st30{opacity:0.9541;fill:url(#path44387_1_);enable-background:new    ;}
	.st31{fill:#060505;}
	.st32{opacity:0.6628;fill:url(#path44389_1_);enable-background:new    ;}
	.st33{opacity:0.6628;fill:url(#path44391_1_);enable-background:new    ;}
	.st34{fill:url(#path44401_1_);}
	.st35{fill:url(#path44403_1_);}
	.st36{fill:url(#path47133_1_);}
	.st37{opacity:0.6628;fill:url(#path48010_1_);enable-background:new    ;}
	.st38{opacity:0.6628;fill:url(#path48898_1_);enable-background:new    ;}
	.st39{fill:url(#path48913_1_);}
	.st40{fill:url(#path49816_1_);}
	.st41{opacity:0.5688;fill:url(#path49820_1_);enable-background:new    ;}
	.st42{fill:url(#path52457_1_);}
	.st43{fill:url(#path53340_1_);}
	.st44{fill:url(#path55098_1_);}
	.st45{fill:url(#path59507_1_);}
	.st46{opacity:0.7;enable-background:new    ;}
	.st47{fill:url(#SVGID_1_);}
</style>
<g id="layer1" inkscape:groupmode="layer" inkscape:label="Layer 1">
	
		<radialGradient id="path3146_1_" cx="84.0028" cy="20.8083" r="80.2255" gradientTransform="matrix(-0.7996 0 0 -7.475571e-02 131.1721 121.7083)" gradientUnits="userSpaceOnUse">
		<stop  offset="0" style="stop-color:#030303"/>
		<stop  offset="1" style="stop-color:#030303;stop-opacity:0"/>
	</radialGradient>
	
		<path id="path3146" inkscape:r_cx="true" inkscape:r_cy="true" sodipodi:cx="81.562538" sodipodi:cy="151.97745" sodipodi:rx="80.225449" sodipodi:ry="10.696727" sodipodi:type="arc" class="st0" d="
		M-0.2,120.2c0,3.3,28.7,6,64.2,6s64.2-2.7,64.2-6c0-3.3-28.7-6-64.2-6S-0.2,116.8-0.2,120.2z"/>
	<path id="path8250" inkscape:r_cx="true" inkscape:r_cy="true" sodipodi:nodetypes="cssscscc" class="st1" d="M52.9,113.2
		c-1.9,0.1-45.5-3.5-46.8-10.4c-0.7-3.5-1.7-4.1-1.5-30.7c0-1.2,0.7-1.3,1.4-1.8c0.7-0.5,1.4-0.2,1.4-0.2
		c0.3,11.8-0.3,27.7,1.4,31.1c3,5.9,41.5,8.7,44.1,8.5L52.9,113.2z"/>
	
		<path id="path8158" inkscape:c_rx="65.859252" inkscape:c_ry="14.742463" inkscape:r_cx="true" inkscape:r_cy="true" sodipodi:cx="59.306156" sodipodi:cy="100.94225" sodipodi:rx="14.232438" sodipodi:ry="7.6203442" sodipodi:type="arc" class="st2" d="
		M79.8,112.2c-0.2,4.4-7.4,7.8-16.3,7.5c-8.8-0.3-15.9-4.1-15.7-8.5l0,0c0.2-4.4,7.4-7.8,16.3-7.5C73,104,80,107.8,79.8,112.2z"/>
	<g id="g4449" transform="matrix(0.9855048,0,0,0.9816395,0.2850474,2.6872204)">
		<path id="path8165" inkscape:r_cx="true" inkscape:r_cy="true" sodipodi:nodetypes="cscccsc" class="st3" d="M19.8,55.3
			C9.3,55.3,7.7,64.9,7.7,74c0,9,1.8,18,12.1,18.3c0-0.1,0-0.1,0-0.2V56.1C19.7,55.8,19.8,55.6,19.8,55.3
			C19.8,55.3,19.8,55.3,19.8,55.3z"/>
		<path id="rect1971" inkscape:r_cx="true" inkscape:r_cy="true" sodipodi:nodetypes="cscsccccscs" class="st4" d="M23.6,50
			c0.4-0.3,1.3-1.1,2.7-1.1c0.4,0,0.6,0.5,0.6,0.9c0,0-0.9,12.7-0.9,24.7c0,12,0.4,23,0.4,23c0,0.4,0,1.3-1.3,1.4l-0.6,0
			c-1,0-2.4-1.4-2.4-1.7c0,0-0.2-10.7-0.2-22.6s0.8-23.4,0.8-23.4C22.8,50.7,23.3,50.2,23.6,50z"/>
		<path id="path3731" inkscape:r_cx="true" inkscape:r_cy="true" sodipodi:nodetypes="cccsccccscc" class="st3" d="M29.1,49h0.5
			c1.8,0,3.9,1.3,4,6.2c0,0-0.2,9.1-0.2,18.3c0,9.1,0.2,18.3,0.2,18.3c-0.1,4.7-2.7,7-5.2,7l-0.6,0c-1.1,0-1.3-0.8-1.3-1.2
			c0,0-0.8-11.8-0.7-23.7c0.1-11.8,1.1-23.7,1.1-23.7C26.9,49.3,28.1,48.9,29.1,49z"/>
		
			<radialGradient id="path55989_1_" cx="41.2076" cy="63.9138" r="6.0938" gradientTransform="matrix(-0.9854 1.715588e-02 4.027240e-02 2.3131 49.6734 -93.112)" gradientUnits="userSpaceOnUse">
			<stop  offset="0" style="stop-color:#FFFFFF"/>
			<stop  offset="1" style="stop-color:#FFFFFF;stop-opacity:0"/>
		</radialGradient>
		<path id="path55989" inkscape:r_cx="true" inkscape:r_cy="true" class="st5" d="M19.5,55.4C9.4,55.6,7.8,65.2,7.8,74.2
			c0,3.2,0.2,6.3,1,9.1c-0.1-0.8-0.1-1.6-0.1-2.4c0-9.4,4.7-17.3,11.2-20v-4.6c0-0.3,0-0.5,0.1-0.8c0,0,0,0,0,0c0,0,0,0,0,0
			C19.8,55.4,19.7,55.4,19.5,55.4z"/>
		<path id="rect3735" inkscape:r_cx="true" inkscape:r_cy="true" sodipodi:nodetypes="cccscsccc" class="st6" d="M22,50.1l0.2,0
			c0.6,0,0.6,0.5,0.6,1.6c0,0-0.3,5.3-0.5,16.5c-0.2,11.3-0.1,28.2-0.1,28.2c0,0.6-0.3,1-0.6,1c-1.7,0-4.5-3.1-4.4-6.5l0-35.3
			C17.2,55.3,19.6,50.1,22,50.1z"/>
		<path id="path61265" inkscape:r_cx="true" inkscape:r_cy="true" sodipodi:nodetypes="cscscssc" class="st7" d="M66.3-0.6
			C45.7-0.1,31.9,11.3,27.2,21.3c-0.9,2-0.2,3.7,2.1,6.1C39.3,16.8,49,11.1,66.7,11.1s27.7,6.1,37.4,16.6c2.6-2.8,2.6-3.9,1.8-6.1
			c-3.4-8.8-17.3-22.2-38.4-22.2C67.1-0.6,66.7-0.6,66.3-0.6z"/>
		<g id="g44343" transform="translate(2.828427,1.06066)" inkscape:r_cx="true" inkscape:r_cy="true">
			
				<path id="path17051" inkscape:r_cx="true" inkscape:r_cy="true" sodipodi:nodetypes="cssssssscsssssscscsssssssssssssccssssc" class="st8" d="
				M29.1,18.5C29.1,18.5,29.1,18.6,29.1,18.5C29.1,18.6,29,18.6,29.1,18.5c-0.1,0-0.1,0.1-0.2,0.1c0,0,0,0-0.1,0c0,0,0,0,0,0
				c0,0-0.1,0-0.1,0c0,0,0,0,0,0c0,0,0,0-0.1,0.1c0,0-3.2,3.1-6,6.6s-5.2,7.8-5.3,7.8c-0.1,0-0.4-0.1-0.7-0.1
				c-2.7,0-4.8,2.1-4.8,4.7c0,2.6,2.2,4.6,4.8,4.6c2.7,0,4.8-2.1,4.8-4.6c0-1.3-0.6-2.5-1.5-3.4c0.2-0.4,2.1-4,4.7-7.3
				c2.8-3.5,6.3-6.8,6.3-6.8c0,0,0,0,0,0c0,0,0,0,0,0c0,0,0-0.1,0-0.1c0,0,0,0,0,0c0,0,0,0,0-0.1c0,0,0-0.1,0-0.1c0,0,0,0,0-0.1
				c0,0,0,0,0-0.1c0,0,0,0,0-0.1c0,0,0,0,0-0.1c0-0.1-0.1-0.2-0.1-0.2c0,0,0-0.1-0.1-0.1c-0.1-0.1-0.2-0.2-0.2-0.2
				c0,0-0.1,0-0.1-0.1l-0.4-0.3c-0.1,0-0.2-0.1-0.2-0.1c-0.2-0.1-0.4-0.1-0.5-0.1c0,0-0.1,0-0.1,0C29.2,18.5,29.2,18.5,29.1,18.5
				C29.1,18.5,29.1,18.5,29.1,18.5z"/>
			
				<path id="rect8188" inkscape:r_cx="true" inkscape:r_cy="true" sodipodi:nodetypes="cssssssscsssssscscsssssssssssssccssssc" class="st9" d="
				M29.1,18.5C29.1,18.5,29.1,18.6,29.1,18.5C29.1,18.6,29,18.6,29.1,18.5c-0.1,0-0.1,0.1-0.2,0.1c0,0,0,0-0.1,0c0,0,0,0,0,0
				c0,0-0.1,0-0.1,0c0,0,0,0,0,0c0,0,0,0-0.1,0.1c0,0-3.2,3.1-6,6.6s-5.2,7.8-5.3,7.8c-0.1,0-0.4-0.1-0.7-0.1
				c-2.7,0-4.8,2.1-4.8,4.7c0,2.6,2.2,4.6,4.8,4.6c2.7,0,4.8-2.1,4.8-4.6c0-1.3-0.6-2.5-1.5-3.4c0.2-0.4,2.1-4,4.7-7.3
				c2.8-3.5,6.3-6.8,6.3-6.8c0,0,0,0,0,0c0,0,0,0,0,0c0,0,0-0.1,0-0.1c0,0,0,0,0,0c0,0,0,0,0-0.1c0,0,0-0.1,0-0.1c0,0,0,0,0-0.1
				c0,0,0,0,0-0.1c0,0,0,0,0-0.1c0,0,0,0,0-0.1c0-0.1-0.1-0.2-0.1-0.2c0,0,0-0.1-0.1-0.1c-0.1-0.1-0.2-0.2-0.2-0.2
				c0,0-0.1,0-0.1-0.1l-0.4-0.3c-0.1,0-0.2-0.1-0.2-0.1c-0.2-0.1-0.4-0.1-0.5-0.1c0,0-0.1,0-0.1,0C29.2,18.5,29.2,18.5,29.1,18.5
				C29.1,18.5,29.1,18.5,29.1,18.5z"/>
			
				<linearGradient id="path12666_1_" gradientUnits="userSpaceOnUse" x1="18.6245" y1="97.4721" x2="18.284" y2="84.104" gradientTransform="matrix(0.9855 0 0 -0.9816 3.264 126.2902)">
				<stop  offset="0" style="stop-color:#FFFFFF"/>
				<stop  offset="1" style="stop-color:#030303;stop-opacity:0"/>
			</linearGradient>
			
				<path id="path12666" inkscape:r_cx="true" inkscape:r_cy="true" sodipodi:nodetypes="cssssssscsssssscscsssssssssssssccssssc" class="st10" d="
				M29.3,18.5C29.3,18.5,29.2,18.6,29.3,18.5C29.2,18.6,29.2,18.6,29.3,18.5c-0.1,0-0.1,0.1-0.2,0.1c0,0,0,0-0.1,0c0,0,0,0,0,0
				c0,0-0.1,0-0.1,0c0,0,0,0,0,0c0,0,0,0-0.1,0.1c0,0-3.2,3.1-6,6.6s-5.2,7.8-5.3,7.8c-0.1,0-0.4-0.1-0.7-0.1
				c-2.7,0-4.8,2.1-4.8,4.7c0,2.6,2.2,4.6,4.8,4.6c2.7,0,4.8-2.1,4.8-4.6c0-1.3-0.6-2.5-1.5-3.4c0.2-0.4,2.1-4,4.7-7.3
				c2.8-3.5,6.3-6.8,6.3-6.8c0,0,0,0,0,0c0,0,0,0,0,0c0,0,0-0.1,0-0.1c0,0,0,0,0,0c0,0,0,0,0-0.1c0,0,0-0.1,0-0.1c0,0,0,0,0-0.1
				c0,0,0,0,0-0.1c0,0,0,0,0-0.1c0,0,0,0,0-0.1c0-0.1-0.1-0.2-0.1-0.2c0,0,0-0.1-0.1-0.1c-0.1-0.1-0.2-0.2-0.2-0.2
				c0,0-0.1,0-0.1-0.1l-0.4-0.3c-0.1,0-0.2-0.1-0.2-0.1c-0.2-0.1-0.4-0.1-0.5-0.1c0,0-0.1,0-0.1,0C29.4,18.5,29.3,18.5,29.3,18.5
				C29.3,18.5,29.3,18.5,29.3,18.5z"/>
			
				<radialGradient id="path11783_1_" cx="22.4373" cy="101.7374" r="9.6408" gradientTransform="matrix(0.9855 0 0 -1.2172 3.0872 148.4767)" gradientUnits="userSpaceOnUse">
				<stop  offset="0" style="stop-color:#030303"/>
				<stop  offset="1" style="stop-color:#030303;stop-opacity:0"/>
			</radialGradient>
			
				<path id="path11783" inkscape:r_cx="true" inkscape:r_cy="true" sodipodi:nodetypes="cssssssscsssssscscsssssssssssssccssssc" class="st11" d="
				M29.1,18.5C29.1,18.5,29.1,18.6,29.1,18.5C29.1,18.6,29,18.6,29.1,18.5c-0.1,0-0.1,0.1-0.2,0.1c0,0,0,0-0.1,0c0,0,0,0,0,0
				c0,0-0.1,0-0.1,0c0,0,0,0,0,0c0,0,0,0-0.1,0.1c0,0-3.2,3.1-6,6.6s-5.2,7.8-5.3,7.8c-0.1,0-0.4-0.1-0.7-0.1
				c-2.7,0-4.8,2.1-4.8,4.7c0,2.6,2.2,4.6,4.8,4.6c2.7,0,4.8-2.1,4.8-4.6c0-1.3-0.6-2.5-1.5-3.4c0.2-0.4,2.1-4,4.7-7.3
				c2.8-3.5,6.3-6.8,6.3-6.8c0,0,0,0,0,0c0,0,0,0,0,0c0,0,0-0.1,0-0.1c0,0,0,0,0,0c0,0,0,0,0-0.1c0,0,0-0.1,0-0.1c0,0,0,0,0-0.1
				c0,0,0,0,0-0.1c0,0,0,0,0-0.1c0,0,0,0,0-0.1c0-0.1-0.1-0.2-0.1-0.2c0,0,0-0.1-0.1-0.1c-0.1-0.1-0.2-0.2-0.2-0.2
				c0,0-0.1,0-0.1-0.1l-0.4-0.3c-0.1,0-0.2-0.1-0.2-0.1c-0.2-0.1-0.4-0.1-0.5-0.1c0,0-0.1,0-0.1,0C29.2,18.5,29.2,18.5,29.1,18.5
				C29.1,18.5,29.1,18.5,29.1,18.5z"/>
			
				<radialGradient id="path16168_1_" cx="11.0479" cy="91.5931" r="2.8726" gradientTransform="matrix(-1.414124e-02 2.1156 3.2929 2.201049e-02 -284.9847 6.884)" gradientUnits="userSpaceOnUse">
				<stop  offset="0" style="stop-color:#E2DDDC"/>
				<stop  offset="0.3907" style="stop-color:#FFFFFF"/>
				<stop  offset="0.8269" style="stop-color:#DFD9DF"/>
				<stop  offset="1" style="stop-color:#C4C3C2"/>
			</radialGradient>
			
				<path id="path16168" inkscape:r_cx="true" inkscape:r_cy="true" sodipodi:cx="14.451495" sodipodi:cy="39.037128" sodipodi:rx="2.8726213" sodipodi:ry="2.8726213" sodipodi:type="arc" class="st12" d="
				M21.2,37.8c0,2.4-2,4.4-4.4,4.4c-2.4,0-4.4-2-4.4-4.4c0,0,0,0,0,0c0-2.4,2-4.4,4.4-4.4C19.2,33.4,21.2,35.4,21.2,37.8
				C21.2,37.8,21.2,37.8,21.2,37.8z"/>
			
				<path id="path8195" inkscape:r_cx="true" inkscape:r_cy="true" sodipodi:cx="23.744551" sodipodi:cy="34.788834" sodipodi:rx="3.0923135" sodipodi:ry="3.0923135" sodipodi:type="arc" class="st13" d="
				M19.8,38c0,1.8-1.5,3.3-3.3,3.3s-3.3-1.5-3.3-3.3c0-1.8,1.5-3.3,3.3-3.3S19.8,36.2,19.8,38z"/>
			
				<radialGradient id="path18799_1_" cx="19.9708" cy="91.955" r="3.0923" gradientTransform="matrix(1.7601 0 0 -1.5849 -20.1208 186.2971)" gradientUnits="userSpaceOnUse">
				<stop  offset="0" style="stop-color:#DFE1E1"/>
				<stop  offset="0" style="stop-color:#564242"/>
				<stop  offset="0.5" style="stop-color:#E2DDDC"/>
				<stop  offset="0.782" style="stop-color:#FFFFFF"/>
				<stop  offset="1" style="stop-color:#DFD9DF"/>
			</radialGradient>
			
				<path id="path18799" inkscape:r_cx="true" inkscape:r_cy="true" sodipodi:cx="23.744551" sodipodi:cy="34.788834" sodipodi:rx="3.0923135" sodipodi:ry="3.0923135" sodipodi:type="arc" class="st14" d="
				M19.8,38c0,1.8-1.5,3.3-3.3,3.3s-3.3-1.5-3.3-3.3c0-1.8,1.5-3.3,3.3-3.3S19.8,36.2,19.8,38z"/>
			
				<radialGradient id="path20559_1_" cx="11.0551" cy="91.389" r="3.0454" gradientTransform="matrix(2.8733 2.860309e-02 1.229415e-02 -1.235 -19.5202 147.9271)" gradientUnits="userSpaceOnUse">
				<stop  offset="0" style="stop-color:#E2DDDC"/>
				<stop  offset="0.3907" style="stop-color:#FFFFFF"/>
				<stop  offset="0.8269" style="stop-color:#DFD9DF"/>
				<stop  offset="1" style="stop-color:#C4C3C2"/>
			</radialGradient>
			
				<radialGradient id="path20559_2_" cx="20.805" cy="95.5719" r="3.0923" gradientTransform="matrix(0.9855 0 0 -0.9816 -21.2539 125.5709)" gradientUnits="userSpaceOnUse">
				<stop  offset="0" style="stop-color:#030303"/>
				<stop  offset="1" style="stop-color:#030303;stop-opacity:0"/>
			</radialGradient>
			<path id="path20559" inkscape:r_cx="true" inkscape:r_cy="true" class="st15" d="M16,34.7c-1.6,0.2-2.9,1.6-2.9,3.3
				c0,1.3,0.8,2.4,1.8,3c0,0,0,0,0.1,0c1.7-0.8,2.8-2.6,2.8-4.6c0-0.5-0.1-1-0.2-1.5c0,0,0,0,0,0c-0.4-0.1-0.8-0.2-1.2-0.2
				C16.3,34.7,16.2,34.7,16,34.7z"/>
			
				<linearGradient id="path22328_1_" gradientUnits="userSpaceOnUse" x1="19.5919" y1="91.7841" x2="21.0343" y2="95.7439" gradientTransform="matrix(1.0559 0 0 -1.0518 -5.5186 138.2777)">
				<stop  offset="0" style="stop-color:#030303"/>
				<stop  offset="1" style="stop-color:#030303;stop-opacity:0"/>
			</linearGradient>
			
				<path id="path22328" inkscape:r_cx="true" inkscape:r_cy="true" sodipodi:cx="23.744551" sodipodi:cy="34.788834" sodipodi:rx="3.0923135" sodipodi:ry="3.0923135" sodipodi:type="arc" class="st16" d="
				M19.8,38c0,1.8-1.5,3.3-3.3,3.3s-3.3-1.5-3.3-3.3c0-1.8,1.5-3.3,3.3-3.3S19.8,36.2,19.8,38z"/>
		</g>
		<path id="path44361" inkscape:r_cx="true" inkscape:r_cy="true" sodipodi:nodetypes="cscccsc" class="st3" d="M113.3,55.5
			c10.5-0.1,12.1,9.6,12.1,18.7c0,9-1.8,18-12.1,18.3c0-0.1,0-0.1,0-0.2V56.3C113.3,56,113.3,55.7,113.3,55.5
			C113.2,55.5,113.2,55.5,113.3,55.5z"/>
		<path id="path44363" inkscape:r_cx="true" inkscape:r_cy="true" sodipodi:nodetypes="cscsccccscs" class="st4" d="M109.5,50
			c-0.4-0.3-1.3-1.1-2.7-1.1c-0.4,0-0.6,0.5-0.6,0.9c0,0,0.9,12.7,0.9,24.7s-0.4,23-0.4,23c0,0.4,0,1.3,1.3,1.4l0.6,0
			c1,0,2.4-1.4,2.4-1.7c0,0,0.2-10.7,0.2-22.6s-0.8-23.4-0.8-23.4C110.3,50.7,109.7,50.2,109.5,50z"/>
		<path id="path44365" inkscape:r_cx="true" inkscape:r_cy="true" sodipodi:nodetypes="cccsccccscc" class="st3" d="M104,49h-0.5
			c-1.8,0-3.9,1.3-4,6.2c0,0,0.2,9.1,0.2,18.3s-0.2,18.3-0.2,18.3c0.1,4.7,2.7,7,5.2,7l0.6,0c1.1,0,1.3-0.8,1.3-1.2
			c0,0,0.8-11.8,0.7-23.7c-0.1-11.8-1.1-23.7-1.1-23.7C106.2,49.3,104.9,48.9,104,49z"/>
		
			<linearGradient id="path37315_1_" gradientUnits="userSpaceOnUse" x1="38.1309" y1="30.8527" x2="37.8354" y2="71.7277" gradientTransform="matrix(0.9855 0 0 -0.9816 -17.4423 129.4938)">
			<stop  offset="0" style="stop-color:#030303"/>
			<stop  offset="1" style="stop-color:#030303;stop-opacity:0"/>
		</linearGradient>
		<path id="path37315" inkscape:r_cx="true" inkscape:r_cy="true" sodipodi:nodetypes="cccscsccc" class="st17" d="M21.9,50l0.2,0
			c0.6,0,0.6,0.5,0.6,1.6c0,0-0.3,5.3-0.5,16.5c-0.2,11.3-0.1,28.2-0.1,28.2c0,0.6-0.3,1-0.6,1c-1.7,0-4.5-3.1-4.4-6.5l0-35.3
			C17.1,55.2,19.5,50,21.9,50z"/>
		
			<radialGradient id="path39944_1_" cx="15.2078" cy="53.4692" r="2.8294" gradientTransform="matrix(-1.3112 -2.222905e-02 -0.1863 10.9911 51.9626 -536.633)" gradientUnits="userSpaceOnUse">
			<stop  offset="0" style="stop-color:#FFFFFF"/>
			<stop  offset="1" style="stop-color:#FFFFFF;stop-opacity:0"/>
		</radialGradient>
		<path id="path39944" inkscape:r_cx="true" inkscape:r_cy="true" sodipodi:nodetypes="cccscsccc" class="st18" d="M21.9,50l0.2,0
			c0.6,0,0.6,0.5,0.6,1.6c0,0-0.3,5.3-0.5,16.5c-0.2,11.3-0.1,28.2-0.1,28.2c0,0.6-0.3,1-0.6,1c-1.7,0-4.5-3.1-4.4-6.5l0-35.3
			C17.1,55.2,19.5,50,21.9,50z"/>
		<g id="g44354" transform="translate(2.828427,1.06066)" inkscape:r_cx="true" inkscape:r_cy="true">
			
				<path id="path8174" inkscape:r_cx="true" inkscape:r_cy="true" sodipodi:cx="16.946117" sodipodi:cy="63.885883" sodipodi:rx="2.8894303" sodipodi:ry="2.8894303" sodipodi:type="arc" class="st9" d="
				M13.1,71.1c0,1.6-1.3,2.9-2.9,2.9s-2.9-1.3-2.9-2.9l0,0c0-1.6,1.3-2.9,2.9-2.9S13.1,69.5,13.1,71.1z"/>
			<path id="path43468" inkscape:r_cx="true" inkscape:r_cy="true" sodipodi:nodetypes="cscccsccsssssscccssssz" class="st19" d="
				M16.2,39.7c-0.4,0-0.7,0.1-1.1,0.5c-0.1,0.1-0.1,0.2-0.1,0.3c0,0,0,1.7,0,1.8C15,42.4,8.9,47,8.9,47c-0.5,0.4-1.4,1-1.6,1.7
				c-0.2,0.6-0.1,1.1,0,1.8l1.2,19.9c0,0,0,0,0,0.1c0,0,0,0,0,0c0,0.1-0.1,0.2-0.1,0.4c-0.1,0.9,0.6,1.8,1.6,1.8
				c0.9,0.1,1.8-0.6,1.8-1.6c0-0.5-0.1-0.9-0.4-1.2c0,0,0,0,0,0l-1.2-19.5c-0.1-0.6,0-0.9,0.6-1.2c0,0,4.6-3.5,6.3-4.8
				c0.1-0.1,0.3-0.2,0.3-0.5c0-0.1,0-3.4,0-3.4c0,0,0-0.2-0.1-0.3C17,39.8,16.7,39.7,16.2,39.7z"/>
			<path id="path8178" inkscape:r_cx="true" inkscape:r_cy="true" sodipodi:nodetypes="cscccsccsssssscccssssz" class="st20" d="
				M16.2,39.7c-0.4,0-0.7,0.1-1.1,0.5c-0.1,0.1-0.1,0.2-0.1,0.3c0,0,0,1.7,0,1.8C15,42.4,8.9,47,8.9,47c-0.5,0.4-1.4,1-1.6,1.7
				c-0.2,0.6-0.1,1.1,0,1.8l1.2,19.9c0,0,0,0,0,0.1c0,0,0,0,0,0c0,0.1-0.1,0.2-0.1,0.4c-0.1,0.9,0.6,1.8,1.6,1.8
				c0.9,0.1,1.8-0.6,1.8-1.6c0-0.5-0.1-0.9-0.4-1.2c0,0,0,0,0,0l-1.2-19.5c-0.1-0.6,0-0.9,0.6-1.2c0,0,4.6-3.5,6.3-4.8
				c0.1-0.1,0.3-0.2,0.3-0.5c0-0.1,0-3.4,0-3.4c0,0,0-0.2-0.1-0.3C17,39.8,16.7,39.7,16.2,39.7z"/>
			
				<radialGradient id="path40827_1_" cx="6.2188" cy="61.5611" r="5.1137" gradientTransform="matrix(0.9854 -1.353203e-02 -7.198612e-02 -5.2421 7.4734 401.4092)" gradientUnits="userSpaceOnUse">
				<stop  offset="0" style="stop-color:#030303"/>
				<stop  offset="1" style="stop-color:#030303;stop-opacity:0"/>
			</radialGradient>
			<path id="path40827" inkscape:r_cx="true" inkscape:r_cy="true" sodipodi:nodetypes="cscccsccsssssscccssssz" class="st21" d="
				M16.2,39.7c-0.4,0-0.7,0.1-1.1,0.5c-0.1,0.1-0.1,0.2-0.1,0.3c0,0,0,1.7,0,1.8C15,42.4,8.9,47,8.9,47c-0.5,0.4-1.4,1-1.6,1.7
				c-0.2,0.6-0.1,1.1,0,1.8l1.2,19.9c0,0,0,0,0,0.1c0,0,0,0,0,0c0,0.1-0.1,0.2-0.1,0.4c-0.1,0.9,0.6,1.8,1.6,1.8
				c0.9,0.1,1.8-0.6,1.8-1.6c0-0.5-0.1-0.9-0.4-1.2c0,0,0,0,0,0l-1.2-19.5c-0.1-0.6,0-0.9,0.6-1.2c0,0,4.6-3.5,6.3-4.8
				c0.1-0.1,0.3-0.2,0.3-0.5c0-0.1,0-3.4,0-3.4c0,0,0-0.2-0.1-0.3C17,39.8,16.7,39.7,16.2,39.7z"/>
			
				<radialGradient id="path41710_1_" cx="11.9684" cy="74.1507" r="5.1137" gradientTransform="matrix(-0.9855 0 0 5.5798 22.3398 -378.8814)" gradientUnits="userSpaceOnUse">
				<stop  offset="0" style="stop-color:#FFFFFF"/>
				<stop  offset="1" style="stop-color:#FFFFFF;stop-opacity:0"/>
			</radialGradient>
			<path id="path41710" inkscape:r_cx="true" inkscape:r_cy="true" sodipodi:nodetypes="cscccsccsssssscccssssz" class="st22" d="
				M16.2,39.7c-0.4,0-0.7,0.1-1.1,0.5c-0.1,0.1-0.1,0.2-0.1,0.3c0,0,0,1.7,0,1.8C15,42.4,8.9,47,8.9,47c-0.5,0.4-1.4,1-1.6,1.7
				c-0.2,0.6-0.1,1.1,0,1.8l1.2,19.9c0,0,0,0,0,0.1c0,0,0,0,0,0c0,0.1-0.1,0.2-0.1,0.4c-0.1,0.9,0.6,1.8,1.6,1.8
				c0.9,0.1,1.8-0.6,1.8-1.6c0-0.5-0.1-0.9-0.4-1.2c0,0,0,0,0,0l-1.2-19.5c-0.1-0.6,0-0.9,0.6-1.2c0,0,4.6-3.5,6.3-4.8
				c0.1-0.1,0.3-0.2,0.3-0.5c0-0.1,0-3.4,0-3.4c0,0,0-0.2-0.1-0.3C17,39.8,16.7,39.7,16.2,39.7z"/>
		</g>
		
			<radialGradient id="path45344_1_" cx="10.4522" cy="62.8147" r="2.3488" gradientTransform="matrix(-0.9854 1.256498e-02 0.1 7.8427 14.9615 -446.7123)" gradientUnits="userSpaceOnUse">
			<stop  offset="0" style="stop-color:#E2DDDC"/>
			<stop  offset="0.3907" style="stop-color:#FFFFFF"/>
			<stop  offset="0.8269" style="stop-color:#DFD9DF"/>
			<stop  offset="1" style="stop-color:#C4C3C2"/>
		</radialGradient>
		<path id="path45344" inkscape:r_cx="true" inkscape:r_cy="true" sodipodi:nodetypes="csccsssssscss" class="st23" d="M11.5,48.8
			c-0.6,0-1.2,0.6-1.4,1.3c-0.2,0.6,0.1,0.7,0.1,1.4l1.2,19.9c0,0,0,0,0,0.1c0,0,0,0,0,0c0,0.1-0.1,0.2-0.1,0.4
			c-0.1,0.9,0.6,1.8,1.6,1.8s1.8-0.6,1.8-1.6c0-0.5-0.1-0.9-0.4-1.2c0,0,0,0,0,0c0,0-1.1-14.7-1.3-20.6
			C12.9,49.4,12.2,48.8,11.5,48.8z"/>
		
			<radialGradient id="path57748_1_" cx="119.576" cy="47.9751" r="4.2188" gradientTransform="matrix(-1.1509 1.091404e-02 4.868761e-02 5.1344 251.6426 -195.6921)" gradientUnits="userSpaceOnUse">
			<stop  offset="0" style="stop-color:#FFFFFF"/>
			<stop  offset="1" style="stop-color:#FFFFFF;stop-opacity:0"/>
		</radialGradient>
		<path id="path57748" inkscape:r_cx="true" inkscape:r_cy="true" class="st24" d="M113.4,55.9c0.1,0.2,0.1,0.5,0.1,0.8v31.7
			c4.9-3.6,8.3-12.3,8.3-22.3c0-2.6-0.2-5.1-0.7-7.4C119.4,56.9,116.9,55.8,113.4,55.9C113.4,55.9,113.4,55.9,113.4,55.9
			C113.4,55.9,113.4,55.9,113.4,55.9z"/>
		<path id="path44367" inkscape:r_cx="true" inkscape:r_cy="true" sodipodi:nodetypes="cccscsccc" class="st6" d="M111,50.1l-0.2,0
			c-0.6,0-0.6,0.5-0.6,1.6c0,0,0.3,5.3,0.5,16.5c0.2,11.3,0.1,28.2,0.1,28.2c0,0.6,0.3,1,0.6,1c1.7,0,4.5-3.1,4.4-6.5l0-35.3
			C115.8,55.3,113.4,50.1,111,50.1z"/>
		
			<path id="path44371" inkscape:r_cx="true" inkscape:r_cy="true" sodipodi:nodetypes="cssssssscsssssscscsssssssssssssccssssc" class="st8" d="
			M101.1,19.8C101.1,19.8,101.2,19.8,101.1,19.8C101.2,19.8,101.2,19.8,101.1,19.8c0.1,0,0.1,0.1,0.2,0.1c0,0,0,0,0.1,0c0,0,0,0,0,0
			c0,0,0.1,0,0.1,0c0,0,0,0,0,0c0,0,0,0,0.1,0.1c0,0,3.2,3.1,6,6.6s5.2,7.8,5.3,7.8c0.1,0,0.4-0.1,0.7-0.1c2.7,0,4.8,2.1,4.8,4.7
			c0,2.6-2.2,4.6-4.8,4.6c-2.7,0-4.8-2.1-4.8-4.6c0-1.3,0.6-2.5,1.5-3.4c-0.2-0.4-2.1-4-4.7-7.3c-2.8-3.5-6.3-6.8-6.3-6.8
			c0,0,0,0,0,0c0,0,0,0,0,0c0,0,0-0.1,0-0.1c0,0,0,0,0,0c0,0,0,0,0-0.1c0,0,0-0.1,0-0.1c0,0,0,0,0-0.1c0,0,0,0,0-0.1c0,0,0,0,0-0.1
			c0,0,0,0,0-0.1c0-0.1,0.1-0.2,0.1-0.2c0,0,0-0.1,0.1-0.1c0.1-0.1,0.2-0.2,0.2-0.2c0,0,0.1,0,0.1-0.1l0.4-0.3
			c0.1,0,0.2-0.1,0.2-0.1c0.2-0.1,0.4-0.1,0.5-0.1c0,0,0.1,0,0.1,0C101,19.8,101.1,19.8,101.1,19.8
			C101.1,19.8,101.1,19.8,101.1,19.8z"/>
		
			<path id="path44373" inkscape:r_cx="true" inkscape:r_cy="true" sodipodi:nodetypes="cssssssscsssssscscsssssssssssssccssssc" class="st9" d="
			M101.1,19.8C101.1,19.8,101.2,19.8,101.1,19.8C101.2,19.8,101.2,19.8,101.1,19.8c0.1,0,0.1,0.1,0.2,0.1c0,0,0,0,0.1,0c0,0,0,0,0,0
			c0,0,0.1,0,0.1,0c0,0,0,0,0,0c0,0,0,0,0.1,0.1c0,0,3.2,3.1,6,6.6s5.2,7.8,5.3,7.8c0.1,0,0.4-0.1,0.7-0.1c2.7,0,4.8,2.1,4.8,4.7
			c0,2.6-2.2,4.6-4.8,4.6c-2.7,0-4.8-2.1-4.8-4.6c0-1.3,0.6-2.5,1.5-3.4c-0.2-0.4-2.1-4-4.7-7.3c-2.8-3.5-6.3-6.8-6.3-6.8
			c0,0,0,0,0,0c0,0,0,0,0,0c0,0,0-0.1,0-0.1c0,0,0,0,0,0c0,0,0,0,0-0.1c0,0,0-0.1,0-0.1c0,0,0,0,0-0.1c0,0,0,0,0-0.1c0,0,0,0,0-0.1
			c0,0,0,0,0-0.1c0-0.1,0.1-0.2,0.1-0.2c0,0,0-0.1,0.1-0.1c0.1-0.1,0.2-0.2,0.2-0.2c0,0,0.1,0,0.1-0.1l0.4-0.3
			c0.1,0,0.2-0.1,0.2-0.1c0.2-0.1,0.4-0.1,0.5-0.1c0,0,0.1,0,0.1,0C101,19.8,101.1,19.8,101.1,19.8
			C101.1,19.8,101.1,19.8,101.1,19.8z"/>
		
			<linearGradient id="path44375_1_" gradientUnits="userSpaceOnUse" x1="23.8245" y1="98.5327" x2="23.4839" y2="85.1647" gradientTransform="matrix(-0.9855 0 0 -0.9816 132.0874 128.5769)">
			<stop  offset="0" style="stop-color:#FFFFFF"/>
			<stop  offset="1" style="stop-color:#030303;stop-opacity:0"/>
		</linearGradient>
		
			<path id="path44375" inkscape:r_cx="true" inkscape:r_cy="true" sodipodi:nodetypes="cssssssscsssssscscsssssssssssssccssssc" class="st25" d="
			M101,19.8C101,19.8,101,19.8,101,19.8C101,19.8,101,19.8,101,19.8c0.1,0,0.1,0.1,0.2,0.1c0,0,0,0,0.1,0c0,0,0,0,0,0
			c0,0,0.1,0,0.1,0c0,0,0,0,0,0c0,0,0,0,0.1,0.1c0,0,3.2,3.1,6,6.6c2.8,3.5,5.2,7.8,5.3,7.8c0.1,0,0.4-0.1,0.7-0.1
			c2.7,0,4.8,2.1,4.8,4.7c0,2.6-2.2,4.6-4.8,4.6c-2.7,0-4.8-2.1-4.8-4.6c0-1.3,0.6-2.5,1.5-3.4c-0.2-0.4-2.1-4-4.7-7.3
			c-2.8-3.5-6.3-6.8-6.3-6.8c0,0,0,0,0,0c0,0,0,0,0,0c0,0,0-0.1,0-0.1c0,0,0,0,0,0c0,0,0,0,0-0.1c0,0,0-0.1,0-0.1c0,0,0,0,0-0.1
			c0,0,0,0,0-0.1c0,0,0,0,0-0.1c0,0,0,0,0-0.1c0-0.1,0.1-0.2,0.1-0.2c0,0,0-0.1,0.1-0.1c0.1-0.1,0.2-0.2,0.2-0.2c0,0,0.1,0,0.1-0.1
			l0.4-0.3c0.1,0,0.2-0.1,0.2-0.1c0.2-0.1,0.4-0.1,0.5-0.1c0,0,0.1,0,0.1,0C100.9,19.8,100.9,19.8,101,19.8
			C100.9,19.8,100.9,19.8,101,19.8z"/>
		
			<radialGradient id="path44377_1_" cx="16.6023" cy="101.3603" r="9.6408" gradientTransform="matrix(-0.9855 0 0 -1.2172 132.2642 151.0132)" gradientUnits="userSpaceOnUse">
			<stop  offset="0" style="stop-color:#030303"/>
			<stop  offset="1" style="stop-color:#030303;stop-opacity:0"/>
		</radialGradient>
		
			<path id="path44377" inkscape:r_cx="true" inkscape:r_cy="true" sodipodi:nodetypes="cssssssscsssssscscsssssssssssssccssssc" class="st26" d="
			M101.1,19.8C101.1,19.8,101.2,19.8,101.1,19.8C101.2,19.8,101.2,19.8,101.1,19.8c0.1,0,0.1,0.1,0.2,0.1c0,0,0,0,0.1,0c0,0,0,0,0,0
			c0,0,0.1,0,0.1,0c0,0,0,0,0,0c0,0,0,0,0.1,0.1c0,0,3.2,3.1,6,6.6s5.2,7.8,5.3,7.8c0.1,0,0.4-0.1,0.7-0.1c2.7,0,4.8,2.1,4.8,4.7
			c0,2.6-2.2,4.6-4.8,4.6c-2.7,0-4.8-2.1-4.8-4.6c0-1.3,0.6-2.5,1.5-3.4c-0.2-0.4-2.1-4-4.7-7.3c-2.8-3.5-6.3-6.8-6.3-6.8
			c0,0,0,0,0,0c0,0,0,0,0,0c0,0,0-0.1,0-0.1c0,0,0,0,0,0c0,0,0,0,0-0.1c0,0,0-0.1,0-0.1c0,0,0,0,0-0.1c0,0,0,0,0-0.1c0,0,0,0,0-0.1
			c0,0,0,0,0-0.1c0-0.1,0.1-0.2,0.1-0.2c0,0,0-0.1,0.1-0.1c0.1-0.1,0.2-0.2,0.2-0.2c0,0,0.1,0,0.1-0.1l0.4-0.3
			c0.1,0,0.2-0.1,0.2-0.1c0.2-0.1,0.4-0.1,0.5-0.1c0,0,0.1,0,0.1,0C101,19.8,101.1,19.8,101.1,19.8
			C101.1,19.8,101.1,19.8,101.1,19.8z"/>
		
			<radialGradient id="path44379_1_" cx="13.8689" cy="93.3635" r="2.8726" gradientTransform="matrix(1.414124e-02 2.1156 -3.2929 2.201049e-02 421.0014 2.1222)" gradientUnits="userSpaceOnUse">
			<stop  offset="0" style="stop-color:#E2DDDC"/>
			<stop  offset="0.3907" style="stop-color:#FFFFFF"/>
			<stop  offset="0.8269" style="stop-color:#DFD9DF"/>
			<stop  offset="1" style="stop-color:#C4C3C2"/>
		</radialGradient>
		
			<path id="path44379" inkscape:r_cx="true" inkscape:r_cy="true" sodipodi:cx="14.451495" sodipodi:cy="39.037128" sodipodi:rx="2.8726213" sodipodi:ry="2.8726213" sodipodi:type="arc" class="st27" d="
			M109.1,39.1c0,2.4,2,4.4,4.4,4.4s4.4-2,4.4-4.4c0,0,0,0,0,0c0-2.4-2-4.4-4.4-4.4C111.1,34.6,109.1,36.6,109.1,39.1
			C109.1,39.1,109.1,39.1,109.1,39.1z"/>
		
			<path id="path44381" inkscape:r_cx="true" inkscape:r_cy="true" sodipodi:cx="23.744551" sodipodi:cy="34.788834" sodipodi:rx="3.0923135" sodipodi:ry="3.0923135" sodipodi:type="arc" class="st13" d="
			M110.4,39.2c0,1.8,1.5,3.3,3.3,3.3s3.3-1.5,3.3-3.3c0-1.8-1.5-3.3-3.3-3.3S110.4,37.4,110.4,39.2z"/>
		
			<radialGradient id="path44383_1_" cx="24.1271" cy="93.0156" r="3.0923" gradientTransform="matrix(-1.7601 0 0 -1.5849 157.6631 189.2236)" gradientUnits="userSpaceOnUse">
			<stop  offset="0" style="stop-color:#DFE1E1"/>
			<stop  offset="0" style="stop-color:#564242"/>
			<stop  offset="0.5" style="stop-color:#E2DDDC"/>
			<stop  offset="0.782" style="stop-color:#FFFFFF"/>
			<stop  offset="1" style="stop-color:#DFD9DF"/>
		</radialGradient>
		
			<path id="path44383" inkscape:r_cx="true" inkscape:r_cy="true" sodipodi:cx="23.744551" sodipodi:cy="34.788834" sodipodi:rx="3.0923135" sodipodi:ry="3.0923135" sodipodi:type="arc" class="st28" d="
			M110.4,39.2c0,1.8,1.5,3.3,3.3,3.3s3.3-1.5,3.3-3.3c0-1.8-1.5-3.3-3.3-3.3S110.4,37.4,110.4,39.2z"/>
		
			<radialGradient id="path44385_1_" cx="14.3035" cy="86.6319" r="3.0454" gradientTransform="matrix(2.8734 -1.680169e-02 1.558158e-02 2.6649 68.2703 -196.6464)" gradientUnits="userSpaceOnUse">
			<stop  offset="0" style="stop-color:#E2DDDC"/>
			<stop  offset="0.3907" style="stop-color:#FFFFFF"/>
			<stop  offset="0.8269" style="stop-color:#DFD9DF"/>
			<stop  offset="1" style="stop-color:#C4C3C2"/>
		</radialGradient>
		
			<radialGradient id="path44385_2_" cx="21.6067" cy="91.6377" r="3.0923" gradientTransform="matrix(0.705 0.6886 -0.6859 0.7022 144.5874 -47.522)" gradientUnits="userSpaceOnUse">
			<stop  offset="0" style="stop-color:#030303"/>
			<stop  offset="1" style="stop-color:#030303;stop-opacity:0"/>
		</radialGradient>
		<path id="path44385" inkscape:r_cx="true" inkscape:r_cy="true" class="st29" d="M111,41.3c-1-1.3-0.9-3.2,0.2-4.4
			c0.9-0.9,2.2-1.2,3.4-0.8c0,0,0,0,0,0c0.6,1.8,0.2,3.8-1.2,5.3c-0.4,0.4-0.8,0.7-1.2,0.9c0,0,0,0,0,0c-0.3-0.2-0.7-0.4-1-0.7
			C111.2,41.5,111.1,41.4,111,41.3z"/>
		
			<linearGradient id="path44387_1_" gradientUnits="userSpaceOnUse" x1="29.0638" y1="93.256" x2="25.9715" y2="96.3483" gradientTransform="matrix(-1.0559 0 0 -1.0518 140.7662 140.7293)">
			<stop  offset="0" style="stop-color:#030303"/>
			<stop  offset="1" style="stop-color:#030303;stop-opacity:0"/>
		</linearGradient>
		
			<path id="path44387" inkscape:r_cx="true" inkscape:r_cy="true" sodipodi:cx="23.744551" sodipodi:cy="34.788834" sodipodi:rx="3.0923135" sodipodi:ry="3.0923135" sodipodi:type="arc" class="st30" d="
			M110.1,39.3c0,1.8,1.5,3.3,3.3,3.3s3.3-1.5,3.3-3.3c0-1.8-1.5-3.3-3.3-3.3S110.1,37.5,110.1,39.3z"/>
		<path id="path6407" inkscape:r_cx="true" inkscape:r_cy="true" sodipodi:nodetypes="cscscssc" class="st31" d="M66.3-0.6
			C45.7-0.1,31.9,11.3,27.2,21.3c-0.9,2-0.2,3.7,2.1,6.1C39.3,16.8,49,11.1,66.7,11.1s27.7,6.1,37.4,16.6c2.6-2.8,2.6-3.9,1.8-6.1
			c-3.4-8.8-17.3-22.2-38.4-22.2C67.1-0.6,66.7-0.6,66.3-0.6z"/>
		
			<linearGradient id="path44389_1_" gradientUnits="userSpaceOnUse" x1="40.5025" y1="30.8527" x2="40.2069" y2="71.7277" gradientTransform="matrix(-0.9855 0 0 -0.9816 152.8346 129.5018)">
			<stop  offset="0" style="stop-color:#030303"/>
			<stop  offset="1" style="stop-color:#030303;stop-opacity:0"/>
		</linearGradient>
		<path id="path44389" inkscape:r_cx="true" inkscape:r_cy="true" sodipodi:nodetypes="cccscsccc" class="st32" d="M111.1,50l-0.2,0
			c-0.6,0-0.6,0.5-0.6,1.6c0,0,0.3,5.3,0.5,16.5c0.2,11.3,0.1,28.2,0.1,28.2c0,0.6,0.3,1,0.6,1c1.7,0,4.5-3.1,4.4-6.5l0-35.3
			C115.9,55.2,113.5,50,111.1,50z"/>
		
			<radialGradient id="path44391_1_" cx="13.4259" cy="53.4656" r="2.8294" gradientTransform="matrix(1.3112 -2.222905e-02 0.1863 10.9911 83.3856 -536.7576)" gradientUnits="userSpaceOnUse">
			<stop  offset="0" style="stop-color:#FFFFFF"/>
			<stop  offset="1" style="stop-color:#FFFFFF;stop-opacity:0"/>
		</radialGradient>
		<path id="path44391" inkscape:r_cx="true" inkscape:r_cy="true" sodipodi:nodetypes="cccscsccc" class="st33" d="M111.1,49.9
			l-0.2,0c-0.6,0-0.6,0.5-0.6,1.6c0,0,0.3,5.3,0.5,16.5c0.2,11.3,0.1,28.2,0.1,28.2c0,0.6,0.3,1,0.6,1c1.7,0,4.5-3.1,4.4-6.5l0-35.3
			C115.9,55.1,113.5,49.9,111.1,49.9z"/>
		<g id="g44393" transform="matrix(-1,0,0,1,130.5346,1.24548)" inkscape:r_cx="true" inkscape:r_cy="true">
			
				<path id="path44395" inkscape:r_cx="true" inkscape:r_cy="true" sodipodi:cx="16.946117" sodipodi:cy="63.885883" sodipodi:rx="2.8894303" sodipodi:ry="2.8894303" sodipodi:type="arc" class="st9" d="
				M13.4,71.1c0,1.6-1.3,2.9-2.9,2.9c-1.6,0-2.9-1.3-2.9-2.9l0,0c0-1.6,1.3-2.9,2.9-2.9C12.1,68.2,13.4,69.5,13.4,71.1z"/>
			<path id="path44397" inkscape:r_cx="true" inkscape:r_cy="true" sodipodi:nodetypes="cscccsccsssssscccssssz" class="st19" d="
				M16.6,39.7c-0.4,0-0.7,0.1-1.1,0.5c-0.1,0.1-0.1,0.2-0.1,0.3c0,0,0,1.7,0,1.8C15.3,42.4,9.2,47,9.2,47c-0.5,0.4-1.4,1-1.6,1.7
				c-0.2,0.6-0.1,1.1,0,1.8l1.2,19.9c0,0,0,0,0,0.1c0,0,0,0,0,0c0,0.1-0.1,0.2-0.1,0.4c-0.1,0.9,0.6,1.8,1.6,1.8
				c0.9,0.1,1.8-0.6,1.8-1.6c0-0.5-0.1-0.9-0.4-1.2c0,0,0,0,0,0l-1.2-19.5c-0.1-0.6,0-0.9,0.6-1.2c0,0,4.6-3.5,6.3-4.8
				c0.1-0.1,0.3-0.2,0.3-0.5c0-0.1,0-3.4,0-3.4c0,0,0-0.2-0.1-0.3C17.3,39.8,17,39.7,16.6,39.7z"/>
			<path id="path44399" inkscape:r_cx="true" inkscape:r_cy="true" sodipodi:nodetypes="cscccsccsssssscccssssz" class="st20" d="
				M16.6,39.7c-0.4,0-0.7,0.1-1.1,0.5c-0.1,0.1-0.1,0.2-0.1,0.3c0,0,0,1.7,0,1.8C15.3,42.4,9.2,47,9.2,47c-0.5,0.4-1.4,1-1.6,1.7
				c-0.2,0.6-0.1,1.1,0,1.8l1.2,19.9c0,0,0,0,0,0.1c0,0,0,0,0,0c0,0.1-0.1,0.2-0.1,0.4c-0.1,0.9,0.6,1.8,1.6,1.8
				c0.9,0.1,1.8-0.6,1.8-1.6c0-0.5-0.1-0.9-0.4-1.2c0,0,0,0,0,0l-1.2-19.5c-0.1-0.6,0-0.9,0.6-1.2c0,0,4.6-3.5,6.3-4.8
				c0.1-0.1,0.3-0.2,0.3-0.5c0-0.1,0-3.4,0-3.4c0,0,0-0.2-0.1-0.3C17.3,39.8,17,39.7,16.6,39.7z"/>
			
				<radialGradient id="path44401_1_" cx="119.1161" cy="61.3702" r="5.1137" gradientTransform="matrix(-0.9854 1.353203e-02 -7.198612e-02 -5.2421 131.2739 398.7122)" gradientUnits="userSpaceOnUse">
				<stop  offset="0" style="stop-color:#030303"/>
				<stop  offset="1" style="stop-color:#030303;stop-opacity:0"/>
			</radialGradient>
			<path id="path44401" inkscape:r_cx="true" inkscape:r_cy="true" sodipodi:nodetypes="cscccsccsssssscccssssz" class="st34" d="
				M16.6,39.7c-0.4,0-0.7,0.1-1.1,0.5c-0.1,0.1-0.1,0.2-0.1,0.3c0,0,0,1.7,0,1.8C15.3,42.4,9.2,47,9.2,47c-0.5,0.4-1.4,1-1.6,1.7
				c-0.2,0.6-0.1,1.1,0,1.8l1.2,19.9c0,0,0,0,0,0.1c0,0,0,0,0,0c0,0.1-0.1,0.2-0.1,0.4c-0.1,0.9,0.6,1.8,1.6,1.8
				c0.9,0.1,1.8-0.6,1.8-1.6c0-0.5-0.1-0.9-0.4-1.2c0,0,0,0,0,0l-1.2-19.5c-0.1-0.6,0-0.9,0.6-1.2c0,0,4.6-3.5,6.3-4.8
				c0.1-0.1,0.3-0.2,0.3-0.5c0-0.1,0-3.4,0-3.4c0,0,0-0.2-0.1-0.3C17.3,39.8,17,39.7,16.6,39.7z"/>
			
				<radialGradient id="path44403_1_" cx="118.1093" cy="73.9659" r="5.1137" gradientTransform="matrix(0.9855 0 0 5.5798 -105.5446 -377.8502)" gradientUnits="userSpaceOnUse">
				<stop  offset="0" style="stop-color:#FFFFFF"/>
				<stop  offset="1" style="stop-color:#FFFFFF;stop-opacity:0"/>
			</radialGradient>
			<path id="path44403" inkscape:r_cx="true" inkscape:r_cy="true" sodipodi:nodetypes="cscccsccsssssscccssssz" class="st35" d="
				M16.6,39.7c-0.4,0-0.7,0.1-1.1,0.5c-0.1,0.1-0.1,0.2-0.1,0.3c0,0,0,1.7,0,1.8C15.3,42.4,9.2,47,9.2,47c-0.5,0.4-1.4,1-1.6,1.7
				c-0.2,0.6-0.1,1.1,0,1.8l1.2,19.9c0,0,0,0,0,0.1c0,0,0,0,0,0c0,0.1-0.1,0.2-0.1,0.4c-0.1,0.9,0.6,1.8,1.6,1.8
				c0.9,0.1,1.8-0.6,1.8-1.6c0-0.5-0.1-0.9-0.4-1.2c0,0,0,0,0,0l-1.2-19.5c-0.1-0.6,0-0.9,0.6-1.2c0,0,4.6-3.5,6.3-4.8
				c0.1-0.1,0.3-0.2,0.3-0.5c0-0.1,0-3.4,0-3.4c0,0,0-0.2-0.1-0.3C17.3,39.8,17,39.7,16.6,39.7z"/>
		</g>
		
			<radialGradient id="path47133_1_" cx="6.8797" cy="63.4899" r="2.3488" gradientTransform="matrix(0.9855 7.235494e-03 -2.612064e-02 3.5576 115.6251 -175.6058)" gradientUnits="userSpaceOnUse">
			<stop  offset="0" style="stop-color:#E2DDDC"/>
			<stop  offset="0.3907" style="stop-color:#FFFFFF"/>
			<stop  offset="0.8269" style="stop-color:#DFD9DF"/>
			<stop  offset="1" style="stop-color:#C4C3C2"/>
		</radialGradient>
		<path id="path47133" inkscape:r_cx="true" inkscape:r_cy="true" sodipodi:nodetypes="cscssssscss" class="st36" d="M121.4,48.8
			c0.6,0,1.3,0.5,1.5,1.2c0.2,0.6,0.3,1,0.2,1.7c0,0-1.3,19.8-1.3,20.1c0,0.2,0.1,0.4,0.1,0.7c-0.1,0.9-0.9,1.7-1.9,1.7
			c-1.1,0-1.7-0.8-1.8-1.8c0-0.5,0.2-0.8,0.4-1.1c0.1-0.1,0.1-0.3,0.1-0.3c0,0,0.9-14.7,1.2-20.6C120,49.5,120.8,48.9,121.4,48.8z"
			/>
		
			<radialGradient id="path48010_1_" cx="41.4055" cy="66.319" r="2.8282" gradientTransform="matrix(-0.9855 0 0 7.3474 60.8651 -430.8179)" gradientUnits="userSpaceOnUse">
			<stop  offset="0" style="stop-color:#FFFFFF"/>
			<stop  offset="1" style="stop-color:#FFFFFF;stop-opacity:0"/>
		</radialGradient>
		<path id="path48010" inkscape:r_cx="true" inkscape:r_cy="true" class="st37" d="M21.8,50.9c-2.3,0.3-4.5,5-4.6,5.5c0,0,0,0,0,0
			V74c1.1-4.2,3-8,5.3-10.9c0.2-7.2,0.4-10.7,0.4-10.7c0-0.6,0-1.1-0.1-1.3c0,0,0-0.1,0-0.1c0,0,0,0,0,0c0,0,0,0,0,0c0,0,0,0,0,0
			c0,0,0,0,0,0c0,0-0.1,0-0.1,0c0,0,0,0-0.1,0c0,0-0.1,0-0.1,0h-0.2C22,50.9,21.9,50.9,21.8,50.9z"/>
		
			<radialGradient id="path48898_1_" cx="13.3876" cy="53.16" r="2.8294" gradientTransform="matrix(2.9121 -2.222905e-02 8.391251e-02 10.9924 66.8427 -536.5152)" gradientUnits="userSpaceOnUse">
			<stop  offset="0" style="stop-color:#FFFFFF"/>
			<stop  offset="1" style="stop-color:#FFFFFF;stop-opacity:0"/>
		</radialGradient>
		<path id="path48898" inkscape:r_cx="true" inkscape:r_cy="true" class="st38" d="M110.8,50.2C110.7,50.2,110.7,50.3,110.8,50.2
			c-0.1,0-0.2,0-0.2,0.1c0,0,0,0,0,0c0,0,0,0,0,0c0,0,0,0,0,0c0,0,0,0,0,0c0,0,0,0,0,0.1c-0.1,0.2-0.1,0.7-0.1,1.3
			c0,0,0.3,5.2,0.5,16.5c0.1,7.9,0.1,18.5,0.1,24.2c1.7-6.9,2.8-16.6,2.8-27.4c0-4.9-0.2-9.7-0.6-14c-0.6-0.6-1.3-0.9-1.9-0.9h-0.2
			C110.8,50.2,110.8,50.2,110.8,50.2z"/>
		
			<radialGradient id="path48913_1_" cx="16.1501" cy="85.4561" r="1.751" gradientTransform="matrix(0.9855 0 0 -1.9103 3.1282 204.347)" gradientUnits="userSpaceOnUse">
			<stop  offset="0" style="stop-color:#030303"/>
			<stop  offset="1" style="stop-color:#030303;stop-opacity:0"/>
		</radialGradient>
		<path id="path48913" inkscape:r_cx="true" inkscape:r_cy="true" sodipodi:nodetypes="cssssscssssssssssssssc" class="st39" d="
			M18.9,40.5c-0.4,0-0.6,0.2-0.9,0.6c0,0,0,0,0,0.1c0,0,0,0.1,0,0.1c0,0,0,0,0,0c0,0,0,0.1,0,0.1c0,0,0,0,0,0c0,0,0,1.7,0,1.8
			c0,0-0.5,0.4-1.2,0.9c0,0,0,0,0,0c0,1.2,0.2,2.3,0.5,3.3c0,0,0,0,0,0c1.1-0.8,2.1-1.6,2.7-2.1c0,0,0.1-0.1,0.2-0.1
			c0,0,0-0.1,0.1-0.1c0,0,0-0.1,0-0.1c0,0,0-0.1,0-0.1c0,0,0,0,0-0.1c0-0.1,0.2-3.2,0.1-3.4c-0.1-0.1-0.2-0.3-0.3-0.4
			c-0.2-0.2-0.5-0.5-0.9-0.5C19,40.5,18.9,40.5,18.9,40.5z"/>
		
			<radialGradient id="path49816_1_" cx="18.3741" cy="85.4561" r="1.751" gradientTransform="matrix(-1.1257 0 0 -1.9103 134.6508 204.755)" gradientUnits="userSpaceOnUse">
			<stop  offset="0" style="stop-color:#030303"/>
			<stop  offset="1" style="stop-color:#030303;stop-opacity:0"/>
		</radialGradient>
		<path id="path49816" inkscape:r_cx="true" inkscape:r_cy="true" sodipodi:nodetypes="csssssssc" class="st40" d="M114.2,40.9
			c0.4,0,0.7,0.2,1,0.6c0,0,0.1,0.2,0.1,0.2c0,0,0,0.4-1.3,2.8c0,0-1.3,0.7-1.3,0.6c0-0.1,0-3.4,0-3.4c0,0,0.1-0.3,0.1-0.3
			c0.4-0.4,0.7-0.5,1.2-0.5C114.1,40.9,114.1,40.9,114.2,40.9z"/>
		
			<radialGradient id="path49820_1_" cx="20.512" cy="53.5002" r="2.447" gradientTransform="matrix(0.9855 0 0 -10.0237 3.2166 594.397)" gradientUnits="userSpaceOnUse">
			<stop  offset="0" style="stop-color:#FFFFFF"/>
			<stop  offset="1" style="stop-color:#FFFFFF;stop-opacity:0"/>
		</radialGradient>
		<path id="path49820" inkscape:r_cx="true" inkscape:r_cy="true" sodipodi:nodetypes="cscsccscs" class="st41" d="M23.8,50.1
			c0.4-0.3,0.9-0.7,2.4-0.7c0.4,0-1.3,6.3-0.5,2.8c0,0-1.4,10-1.4,21.9l0.3,24.5c-1,0-2-1.4-2-1.8c0,0,0.3-10.5,0.3-22.5
			s0.4-23,0.4-23C23.2,50.9,23.5,50.3,23.8,50.1z"/>
		
			<radialGradient id="path52457_1_" cx="86.7814" cy="54.4343" r="2.447" gradientTransform="matrix(0.9855 0 0 -10.0237 21.4148 602.252)" gradientUnits="userSpaceOnUse">
			<stop  offset="0" style="stop-color:#FFFFFF"/>
			<stop  offset="1" style="stop-color:#FFFFFF;stop-opacity:0"/>
		</radialGradient>
		<path id="path52457" inkscape:r_cx="true" inkscape:r_cy="true" sodipodi:nodetypes="cscsccccscs" class="st42" d="M109.6,49.9
			c-0.4-0.3-1.3-1.1-2.7-1.1c-0.4,0-0.6,0.5-0.6,0.9c0,0,0.9,12.7,0.9,24.7s-0.4,23-0.4,23c0,0.4,0,1.3,1.3,1.4l0.6,0
			c1,0,2.4-1.4,2.4-1.7c0,0,0.2-10.7,0.2-22.6s-0.8-23.4-0.8-23.4C110.4,50.6,109.8,50.1,109.6,49.9z"/>
		
			<radialGradient id="path53340_1_" cx="108.7831" cy="49.2144" r="2.447" gradientTransform="matrix(1.3379 -1.101821e-05 -8.254993e-05 -10.0237 -35.5985 592.0421)" gradientUnits="userSpaceOnUse">
			<stop  offset="0" style="stop-color:#030303"/>
			<stop  offset="1" style="stop-color:#030303;stop-opacity:0"/>
		</radialGradient>
		<path id="path53340" inkscape:r_cx="true" inkscape:r_cy="true" sodipodi:nodetypes="cscsccccscs" class="st43" d="M109.6,49.9
			c-0.4-0.3-1.3-1.1-2.7-1.1c-0.4,0-0.6,0.5-0.6,0.9c0,0,0.9,12.7,0.9,24.7s-0.4,23-0.4,23c0,0.4,0,1.3,1.3,1.4l0.6,0
			c1,0,2.4-1.4,2.4-1.7c0,0,0.2-10.7,0.2-22.6s-0.8-23.4-0.8-23.4C110.4,50.6,109.8,50.1,109.6,49.9z"/>
		
			<radialGradient id="path55098_1_" cx="19.5566" cy="48.8922" r="2.447" gradientTransform="matrix(1.5911 0 -1.447878e-05 -13.7088 -9.07 772.0439)" gradientUnits="userSpaceOnUse">
			<stop  offset="0" style="stop-color:#030303"/>
			<stop  offset="1" style="stop-color:#030303;stop-opacity:0"/>
		</radialGradient>
		<path id="path55098" inkscape:r_cx="true" inkscape:r_cy="true" sodipodi:nodetypes="cscsccccscs" class="st44" d="M23.6,50
			c0.4-0.3,1.3-1.1,2.7-1.1c0.4,0,0.6,0.5,0.6,0.9c0,0-0.9,12.7-0.9,24.7c0,12,0.4,23,0.4,23c0,0.4,0,1.3-1.3,1.4l-0.6,0
			c-1,0-2.4-1.4-2.4-1.7c0,0-0.2-10.7-0.2-22.6s0.8-23.4,0.8-23.4C22.8,50.7,23.3,50.2,23.6,50z"/>
		
			<radialGradient id="path59507_1_" cx="14.221" cy="146.1136" r="34.5418" gradientTransform="matrix(8.087992e-03 0.2584 1.6051 -5.024734e-02 -205.8249 3.8167)" gradientUnits="userSpaceOnUse">
			<stop  offset="0" style="stop-color:#FFFFFF"/>
			<stop  offset="1" style="stop-color:#FFFFFF;stop-opacity:0"/>
		</radialGradient>
		<path id="path59507" inkscape:r_cx="true" inkscape:r_cy="true" sodipodi:nodetypes="cscsscssc" class="st45" d="M66-0.8
			C45.6-0.3,31.8,11,27.2,21.1c-0.9,1.9-0.3,3.6,1.8,5.8c-0.2-0.9-0.2-1.8-0.2-2.7c0.3-12.3,18-23.4,40.4-22.8
			c9.9,0.2,19.7,4,26.6,7.4c-6.7-5.3-16.4-9.6-28.3-9.6c-0.4,0-0.8,0-1.2,0C66.2-0.8,66.1-0.9,66-0.8z"/>
	</g>
	
		<g id="path63912" inkscape:c_rx="65.859252" inkscape:c_ry="14.742463" inkscape:r_cx="true" inkscape:r_cy="true" sodipodi:cx="59.306156" sodipodi:cy="100.94225" sodipodi:rx="14.232438" sodipodi:ry="7.6203442" sodipodi:type="arc" class="st46">
		
			<radialGradient id="SVGID_1_" cx="53.6264" cy="43.237" r="14.2324" gradientTransform="matrix(0.9769 3.071503e-02 1.689669e-02 -0.4876 5.61 126.8277)" gradientUnits="userSpaceOnUse">
			<stop  offset="0" style="stop-color:#030303"/>
			<stop  offset="0.1189" style="stop-color:#151515"/>
			<stop  offset="0.176" style="stop-color:#282828"/>
			<stop  offset="0.5094" style="stop-color:#363636"/>
			<stop  offset="0.8428" style="stop-color:#303130"/>
			<stop  offset="0.8808" style="stop-color:#151515"/>
			<stop  offset="1" style="stop-color:#030303"/>
		</radialGradient>
		<path class="st47" d="M77.8,112.2c-0.1,3.8-6.5,6.7-14.1,6.5s-13.8-3.5-13.7-7.4l0,0c0.1-3.8,6.5-6.7,14.1-6.5
			S77.9,108.3,77.8,112.2z"/>
	</g>
</g>
</svg>
