<svg id="Ebene_1" data-name="Ebene 1" xmlns="http://www.w3.org/2000/svg" xmlns:xlink="http://www.w3.org/1999/xlink" viewBox="0 0 128.3 124.43"><defs><style>.cls-1{opacity:0.3;fill:url(#Unbenannter_Verlauf_35);}.cls-1,.cls-12,.cls-13,.cls-14,.cls-15,.cls-16,.cls-17,.cls-18,.cls-19,.cls-25,.cls-27,.cls-28,.cls-29,.cls-30,.cls-31,.cls-33,.cls-34,.cls-38,.cls-39,.cls-42,.cls-47,.cls-6,.cls-9{isolation:isolate;}.cls-2,.cls-4{fill:#030303;}.cls-14,.cls-2,.cls-20,.cls-7,.cls-8,.cls-9{stroke:#030303;}.cls-2{stroke-opacity:0.55;stroke-width:1.4px;}.cls-3{fill:#333;}.cls-5{fill:#565854;}.cls-6{opacity:0.8;fill:url(#Unbenannter_Verlauf_36);}.cls-7{fill:#b5b6b5;stroke-opacity:0.48;}.cls-14,.cls-16,.cls-20,.cls-30,.cls-7,.cls-8,.cls-9{stroke-linecap:round;stroke-linejoin:round;}.cls-20,.cls-7{stroke-width:0.47px;}.cls-20,.cls-8,.cls-9{fill:none;}.cls-8{stroke-opacity:0.57;stroke-width:0.77px;}.cls-9{stroke-width:0.97px;opacity:0.49;}.cls-10{fill:#bbbdb6;}.cls-11{fill:url(#Unbenannter_Verlauf_16);}.cls-12,.cls-13,.cls-27,.cls-28{opacity:0.67;}.cls-12{fill:url(#Unbenannter_Verlauf_35-2);}.cls-13{fill:url(#Unbenannter_Verlauf_27);}.cls-14{fill:#2f3436;stroke-width:0.44px;opacity:0.67;}.cls-15,.cls-16,.cls-29,.cls-30{opacity:0.4;}.cls-15{fill:url(#Unbenannter_Verlauf_19);}.cls-16,.cls-30{stroke-width:1.37px;}.cls-16{fill:url(#Unbenannter_Verlauf_27-2);stroke:url(#Unbenannter_Verlauf_35-3);}.cls-17,.cls-31{opacity:0.95;}.cls-17{fill:url(#Unbenannter_Verlauf_23);}.cls-18,.cls-19,.cls-33,.cls-34,.cls-38,.cls-39{opacity:0.66;}.cls-18{fill:url(#Unbenannter_Verlauf_23-2);}.cls-19{fill:url(#Unbenannter_Verlauf_36-2);}.cls-20{stroke-opacity:0.71;}.cls-21{fill:#565656;}.cls-22{fill:url(#Unbenannter_Verlauf_35-4);}.cls-23{fill:url(#Unbenannter_Verlauf_36-3);}.cls-24{fill:url(#Unbenannter_Verlauf_27-3);}.cls-25{opacity:0.8;fill:url(#Unbenannter_Verlauf_36-4);}.cls-26{fill:url(#Unbenannter_Verlauf_16-2);}.cls-27{fill:url(#Unbenannter_Verlauf_35-5);}.cls-28{fill:url(#Unbenannter_Verlauf_27-4);}.cls-29{fill:url(#Unbenannter_Verlauf_19-2);}.cls-30{fill:url(#Unbenannter_Verlauf_27-5);stroke:url(#Unbenannter_Verlauf_35-6);}.cls-31{fill:url(#Unbenannter_Verlauf_23-3);}.cls-32{fill:#060505;}.cls-33{fill:url(#Unbenannter_Verlauf_23-4);}.cls-34{fill:url(#Unbenannter_Verlauf_36-5);}.cls-35{fill:url(#Unbenannter_Verlauf_35-7);}.cls-36{fill:url(#Unbenannter_Verlauf_36-6);}.cls-37{fill:url(#Unbenannter_Verlauf_27-6);}.cls-38{fill:url(#Unbenannter_Verlauf_36-7);}.cls-39{fill:url(#Unbenannter_Verlauf_36-8);}.cls-40{fill:url(#Unbenannter_Verlauf_35-8);}.cls-41{fill:url(#Unbenannter_Verlauf_35-9);}.cls-42{opacity:0.57;fill:url(#Unbenannter_Verlauf_36-9);}.cls-43{fill:url(#Unbenannter_Verlauf_36-10);}.cls-44{fill:url(#Unbenannter_Verlauf_35-10);}.cls-45{fill:url(#Unbenannter_Verlauf_35-11);}.cls-46{fill:url(#Unbenannter_Verlauf_36-11);}.cls-47{opacity:0.7;}.cls-48{fill:url(#Unbenannter_Verlauf_37);}</style><radialGradient id="Unbenannter_Verlauf_35" cx="84" cy="20.81" r="80.23" gradientTransform="translate(131.17 121.71) rotate(180) scale(0.8 0.07)" gradientUnits="userSpaceOnUse"><stop offset="0" stop-color="#030303"/><stop offset="1" stop-color="#030303" stop-opacity="0"/></radialGradient><radialGradient id="Unbenannter_Verlauf_36" cx="40.9" cy="65.43" r="6.09" gradientTransform="matrix(-0.99, 0.02, 0.04, 2.31, 49.41, -94.94)" gradientUnits="userSpaceOnUse"><stop offset="0" stop-color="#fff"/><stop offset="1" stop-color="#fff" stop-opacity="0"/></radialGradient><linearGradient id="Unbenannter_Verlauf_16" x1="21.43" y1="99.41" x2="21.09" y2="86.04" gradientTransform="matrix(0.99, 0, 0, -0.98, 3.26, 131.36)" gradientUnits="userSpaceOnUse"><stop offset="0" stop-color="#fff"/><stop offset="1" stop-color="#030303" stop-opacity="0"/></linearGradient><radialGradient id="Unbenannter_Verlauf_35-2" cx="25.18" cy="103.6" r="9.64" gradientTransform="matrix(0.99, 0, 0, -1.22, 3.09, 154.02)" xlink:href="#Unbenannter_Verlauf_35"/><radialGradient id="Unbenannter_Verlauf_27" cx="13.96" cy="93.64" r="2.87" gradientTransform="matrix(-0.01, 2.11, 3.31, 0.02, -290.06, 3.93)" gradientUnits="userSpaceOnUse"><stop offset="0" stop-color="#e2dddc"/><stop offset="0.39" stop-color="#fff"/><stop offset="0.83" stop-color="#dfd9df"/><stop offset="1" stop-color="#c4c3c2"/></radialGradient><radialGradient id="Unbenannter_Verlauf_19" cx="22.75" cy="94" r="3.09" gradientTransform="matrix(1.76, 0, 0, -1.58, -22.16, 192.51)" gradientUnits="userSpaceOnUse"><stop offset="0" stop-color="#dfe1e1"/><stop offset="0" stop-color="#564242"/><stop offset="0.5" stop-color="#e2dddc"/><stop offset="0.78" stop-color="#fff"/><stop offset="1" stop-color="#dfd9df"/></radialGradient><radialGradient id="Unbenannter_Verlauf_27-2" cx="13.97" cy="93.44" r="3.05" gradientTransform="matrix(2.87, 0.03, 0.01, -1.24, -25.04, 153.46)" xlink:href="#Unbenannter_Verlauf_27"/><radialGradient id="Unbenannter_Verlauf_35-3" cx="23.58" cy="97.55" r="3.09" gradientTransform="matrix(0.99, 0, 0, -0.98, -20.9, 130.65)" xlink:href="#Unbenannter_Verlauf_35"/><linearGradient id="Unbenannter_Verlauf_23" x1="22.38" y1="93.83" x2="23.82" y2="97.79" gradientTransform="matrix(1.06, 0, 0, -1.05, -5.61, 143.39)" xlink:href="#Unbenannter_Verlauf_35"/><linearGradient id="Unbenannter_Verlauf_23-2" x1="37.86" y1="32.97" x2="37.57" y2="73.85" gradientTransform="matrix(0.99, 0, 0, -0.98, -17.19, 132.44)" xlink:href="#Unbenannter_Verlauf_35"/><radialGradient id="Unbenannter_Verlauf_36-2" cx="15.27" cy="55.17" r="2.83" gradientTransform="matrix(-1.31, -0.02, -0.19, 10.99, 52.37, -553.62)" xlink:href="#Unbenannter_Verlauf_36"/><radialGradient id="Unbenannter_Verlauf_35-4" cx="9.2" cy="64.16" r="5.11" gradientTransform="matrix(0.99, -0.01, -0.07, -5.24, 7.68, 417.35)" xlink:href="#Unbenannter_Verlauf_35"/><radialGradient id="Unbenannter_Verlauf_36-3" cx="14.87" cy="76.52" r="5.11" gradientTransform="matrix(-0.99, 0, 0, 5.58, 28.12, -389)" xlink:href="#Unbenannter_Verlauf_36"/><radialGradient id="Unbenannter_Verlauf_27-3" cx="10.59" cy="64.35" r="2.35" gradientTransform="matrix(-0.99, 0.01, 0.1, 7.84, 15.04, -456.9)" xlink:href="#Unbenannter_Verlauf_27"/><radialGradient id="Unbenannter_Verlauf_36-4" cx="118.13" cy="49.78" r="4.22" gradientTransform="matrix(-1.15, 0.01, 0.05, 5.13, 248.48, -203.21)" xlink:href="#Unbenannter_Verlauf_36"/><linearGradient id="Unbenannter_Verlauf_16-2" x1="23.76" y1="99.41" x2="23.42" y2="86.04" gradientTransform="translate(130.74 131.54) rotate(180) scale(0.99 0.98)" xlink:href="#Unbenannter_Verlauf_16"/><radialGradient id="Unbenannter_Verlauf_35-5" cx="16.65" cy="102.19" r="9.64" gradientTransform="translate(130.91 154.2) rotate(180) scale(0.99 1.22)" xlink:href="#Unbenannter_Verlauf_35"/><radialGradient id="Unbenannter_Verlauf_27-4" cx="13.95" cy="94.34" r="2.87" gradientTransform="matrix(0.01, 2.11, -3.31, 0.02, 424.06, 4.11)" xlink:href="#Unbenannter_Verlauf_27"/><radialGradient id="Unbenannter_Verlauf_19-2" cx="24.06" cy="94" r="3.09" gradientTransform="translate(156.16 192.7) rotate(180) scale(1.76 1.58)" xlink:href="#Unbenannter_Verlauf_19"/><radialGradient id="Unbenannter_Verlauf_27-5" cx="14.38" cy="87.73" r="3.05" gradientTransform="matrix(2.87, -0.02, 0.02, 2.66, 66.7, -197.51)" xlink:href="#Unbenannter_Verlauf_27"/><radialGradient id="Unbenannter_Verlauf_35-6" cx="21.58" cy="92.64" r="3.09" gradientTransform="matrix(0.7, 0.69, -0.69, 0.7, 144.43, -46.04)" xlink:href="#Unbenannter_Verlauf_35"/><linearGradient id="Unbenannter_Verlauf_23-3" x1="28.93" y1="94.23" x2="25.84" y2="97.32" gradientTransform="translate(139.31 143.66) rotate(180) scale(1.06 1.05)" xlink:href="#Unbenannter_Verlauf_35"/><linearGradient id="Unbenannter_Verlauf_23-4" x1="40.2" y1="32.97" x2="39.9" y2="73.85" gradientTransform="translate(151.19 132.45) rotate(180) scale(0.99 0.98)" xlink:href="#Unbenannter_Verlauf_35"/><radialGradient id="Unbenannter_Verlauf_36-5" cx="13.52" cy="55.17" r="2.83" gradientTransform="matrix(1.31, -0.02, 0.19, 10.99, 81.59, -553.74)" xlink:href="#Unbenannter_Verlauf_36"/><radialGradient id="Unbenannter_Verlauf_35-7" cx="11.54" cy="64.15" r="5.11" gradientTransform="matrix(-0.99, -0.01, 0.07, -5.24, 126.32, 417.54)" xlink:href="#Unbenannter_Verlauf_35"/><radialGradient id="Unbenannter_Verlauf_36-6" cx="12.53" cy="76.52" r="5.11" gradientTransform="translate(105.88 -388.82) scale(0.99 5.58)" xlink:href="#Unbenannter_Verlauf_36"/><radialGradient id="Unbenannter_Verlauf_27-6" cx="7.06" cy="65.01" r="2.35" gradientTransform="matrix(0.99, 0.01, -0.03, 3.56, 114.02, -179.26)" xlink:href="#Unbenannter_Verlauf_27"/><radialGradient id="Unbenannter_Verlauf_36-7" cx="41.09" cy="67.79" r="2.83" gradientTransform="matrix(-0.99, 0, 0, 7.35, 60.55, -439.97)" xlink:href="#Unbenannter_Verlauf_36"/><radialGradient id="Unbenannter_Verlauf_36-8" cx="13.48" cy="54.87" r="2.83" gradientTransform="matrix(2.91, -0.02, 0.08, 10.99, 65.1, -553.51)" xlink:href="#Unbenannter_Verlauf_36"/><radialGradient id="Unbenannter_Verlauf_35-8" cx="16.2" cy="86.57" r="1.75" gradientTransform="matrix(0.99, 0, 0, -1.91, 3.09, 208.42)" xlink:href="#Unbenannter_Verlauf_35"/><radialGradient id="Unbenannter_Verlauf_35-9" cx="18.39" cy="86.57" r="1.75" gradientTransform="translate(133.3 208.82) rotate(180) scale(1.13 1.91)" xlink:href="#Unbenannter_Verlauf_35"/><radialGradient id="Unbenannter_Verlauf_36-9" cx="20.5" cy="55.21" r="2.45" gradientTransform="matrix(0.99, 0, 0, -10.02, 3.17, 613.11)" xlink:href="#Unbenannter_Verlauf_36"/><radialGradient id="Unbenannter_Verlauf_36-10" cx="85.81" cy="56.12" r="2.45" gradientTransform="matrix(0.99, 0, 0, -10.02, 21.11, 620.82)" xlink:href="#Unbenannter_Verlauf_36"/><radialGradient id="Unbenannter_Verlauf_35-10" cx="107.49" cy="51" r="2.45" gradientTransform="matrix(1.34, 0, 0, -10.02, -35.18, 610.8)" xlink:href="#Unbenannter_Verlauf_35"/><radialGradient id="Unbenannter_Verlauf_35-11" cx="19.56" cy="50.68" r="2.45" gradientTransform="matrix(1.59, 0, 0, -13.71, -9.11, 797.39)" xlink:href="#Unbenannter_Verlauf_35"/><radialGradient id="Unbenannter_Verlauf_36-11" cx="14.3" cy="146.12" r="34.54" gradientTransform="matrix(0.01, 0.26, 1.61, -0.05, -206.89, 6.5)" xlink:href="#Unbenannter_Verlauf_36"/><radialGradient id="Unbenannter_Verlauf_37" cx="53.63" cy="43.24" r="14.23" gradientTransform="matrix(0.98, 0.03, 0.02, -0.49, 5.61, 126.83)" gradientUnits="userSpaceOnUse"><stop offset="0" stop-color="#030303"/><stop offset="0.12" stop-color="#151515"/><stop offset="0.18" stop-color="#282828"/><stop offset="0.51" stop-color="#363636"/><stop offset="0.84" stop-color="#303130"/><stop offset="0.88" stop-color="#151515"/><stop offset="1" stop-color="#030303"/></radialGradient></defs><title>audio-headset-f</title><g id="layer1"><path id="path3146" class="cls-1" d="M-0.15,120.15c0,3.31,28.72,6,64.15,6s64.15-2.69,64.15-6-28.72-6-64.15-6S-0.15,116.84-.15,120.15Z" transform="translate(0.15 -1.72)"/><path id="path8250" class="cls-2" d="M52.9,113.21c-1.9.11-45.47-3.5-46.83-10.42-0.68-3.45-1.66-4.05-1.51-30.71,0-1.23.74-1.31,1.45-1.81a1.49,1.49,0,0,1,1.39-.21c0.26,11.83-.34,27.68,1.4,31.13,3,5.94,41.53,8.74,44.13,8.49Z" transform="translate(0.15 -1.72)"/><path id="path8158" class="cls-3" d="M79.85,112.23c-0.15,4.41-7.44,7.76-16.27,7.48s-15.87-4.08-15.72-8.49h0c0.15-4.41,7.44-7.76,16.27-7.48S80,107.82,79.85,112.23Z" transform="translate(0.15 -1.72)"/><g id="g4449"><path id="path8165" class="cls-4" d="M19.8,57c-10.32-.06-12,9.45-12,18.36S9.61,93,19.73,93.33c0-.06,0-0.11,0-0.17V57.75A2.2,2.2,0,0,1,19.87,57H19.8Z" transform="translate(0.15 -1.72)"/><path id="rect1971" class="cls-5" d="M23.55,51.75a4.3,4.3,0,0,1,2.65-1.09,0.82,0.82,0,0,1,.63.83S25.91,64,25.91,75.73s0.43,22.6.43,22.6a1.2,1.2,0,0,1-1.27,1.39H24.52A3.47,3.47,0,0,1,22.21,98S22,87.56,22,75.81s0.74-23,.74-23A2,2,0,0,1,23.55,51.75Z" transform="translate(0.15 -1.72)"/><path id="path3731" class="cls-4" d="M28.95,50.76H29.4c1.79,0,3.84,1.27,3.95,6.07,0,0-.22,9-0.22,17.94s0.22,17.94.22,17.94c-0.06,4.63-2.63,6.82-5.15,6.91l-0.59,0a1.16,1.16,0,0,1-1.27-1.16s-0.77-11.63-.66-23.26,1.1-23.26,1.1-23.26C26.78,51.1,28,50.71,28.95,50.76Z" transform="translate(0.15 -1.72)"/><path id="path55989" class="cls-6" d="M19.55,57.1C9.55,57.26,8,66.67,8,75.48a35.82,35.82,0,0,0,1,8.9C8.86,83.59,8.83,82.81,8.83,82c0-9.2,4.64-17,11-19.66V57.87A2.27,2.27,0,0,1,20,57.1H19.55Z" transform="translate(0.15 -1.72)"/><path id="rect3735" class="cls-7" d="M22,51.87h0.24c0.57,0,.57.49,0.57,1.55,0,0-.31,5.16-0.48,16.21s-0.09,27.73-.09,27.73a0.88,0.88,0,0,1-.64,1c-1.68,0-4.39-3.08-4.37-6.34l0-34.68C17.25,57,19.63,51.83,22,51.87Z" transform="translate(0.15 -1.72)"/><path id="path61265" class="cls-8" d="M65.61,2.11c-20.29.45-33.93,11.64-38.55,21.5-0.91,2-.23,3.67,2,6,10-10.42,19.49-16,37-16s27.3,6,36.86,16.29c2.59-2.73,2.57-3.86,1.77-6-3.32-8.67-17-21.78-37.87-21.78H65.61Z" transform="translate(0.15 -1.72)"/><g id="g44343"><path id="path17051" class="cls-9" d="M31.75,21.92l0,0H31.65l-0.06,0-0.06,0,0,0-0.06,0,0,0-0.06.06a68,68,0,0,0-5.91,6.5c-2.72,3.48-5.16,7.69-5.23,7.67a3.87,3.87,0,0,0-.72-0.06,4.56,4.56,0,1,0,0,9.11,4.62,4.62,0,0,0,4.71-4.54,4.48,4.48,0,0,0-1.45-3.31,52.58,52.58,0,0,1,4.65-7.21,62.39,62.39,0,0,1,6.22-6.66s0,0,0,0l0,0a0.84,0.84,0,0,0,0-.09l0,0s0,0,0-.06a1,1,0,0,0,0-.12s0,0,0-.06,0,0,0-.06,0,0,0-.06l0-.06a1.26,1.26,0,0,0-.09-0.21l-0.06-.09a1.65,1.65,0,0,0-.25-0.25l-0.09-.06-0.43-.31A1.83,1.83,0,0,0,32.52,22,1.45,1.45,0,0,0,32,21.92H31.75Z" transform="translate(0.15 -1.72)"/><path id="rect8188" class="cls-10" d="M31.75,21.92l0,0H31.65l-0.06,0-0.06,0,0,0-0.06,0,0,0-0.06.06a68,68,0,0,0-5.91,6.5c-2.72,3.48-5.16,7.69-5.23,7.67a3.87,3.87,0,0,0-.72-0.06,4.56,4.56,0,1,0,0,9.11,4.62,4.62,0,0,0,4.71-4.54,4.48,4.48,0,0,0-1.45-3.31,52.58,52.58,0,0,1,4.65-7.21,62.39,62.39,0,0,1,6.22-6.66s0,0,0,0l0,0a0.84,0.84,0,0,0,0-.09l0,0s0,0,0-.06a1,1,0,0,0,0-.12s0,0,0-.06,0,0,0-.06,0,0,0-.06l0-.06a1.26,1.26,0,0,0-.09-0.21l-0.06-.09a1.65,1.65,0,0,0-.25-0.25l-0.09-.06-0.43-.31A1.83,1.83,0,0,0,32.52,22,1.45,1.45,0,0,0,32,21.92H31.75Z" transform="translate(0.15 -1.72)"/><path id="path12666" class="cls-11" d="M31.92,21.92l0,0H31.83l-0.06,0-0.06,0,0,0-0.06,0,0,0-0.06.06a68,68,0,0,0-5.91,6.5c-2.72,3.48-5.16,7.69-5.23,7.67a3.87,3.87,0,0,0-.72-0.06,4.56,4.56,0,1,0,0,9.11,4.62,4.62,0,0,0,4.71-4.54,4.48,4.48,0,0,0-1.45-3.31,52.58,52.58,0,0,1,4.65-7.21,62.39,62.39,0,0,1,6.22-6.66s0,0,0,0l0,0a0.84,0.84,0,0,0,0-.09l0,0s0,0,0-.06a1,1,0,0,0,0-.12s0,0,0-.06,0,0,0-.06,0,0,0-.06l0-.06a1.26,1.26,0,0,0-.09-0.21l-0.06-.09a1.65,1.65,0,0,0-.25-0.25l-0.09-.06-0.43-.31A1.83,1.83,0,0,0,32.69,22a1.45,1.45,0,0,0-.52-0.09H31.92Z" transform="translate(0.15 -1.72)"/><path id="path11783" class="cls-12" d="M31.75,21.92l0,0H31.65l-0.06,0-0.06,0,0,0-0.06,0,0,0-0.06.06a68,68,0,0,0-5.91,6.5c-2.72,3.48-5.16,7.69-5.23,7.67a3.87,3.87,0,0,0-.72-0.06,4.56,4.56,0,1,0,0,9.11,4.62,4.62,0,0,0,4.71-4.54,4.48,4.48,0,0,0-1.45-3.31,52.58,52.58,0,0,1,4.65-7.21,62.39,62.39,0,0,1,6.22-6.66s0,0,0,0l0,0a0.84,0.84,0,0,0,0-.09l0,0s0,0,0-.06a1,1,0,0,0,0-.12s0,0,0-.06,0,0,0-.06,0,0,0-.06l0-.06a1.26,1.26,0,0,0-.09-0.21l-0.06-.09a1.65,1.65,0,0,0-.25-0.25l-0.09-.06-0.43-.31A1.83,1.83,0,0,0,32.52,22,1.45,1.45,0,0,0,32,21.92H31.75Z" transform="translate(0.15 -1.72)"/><path id="path16168" class="cls-13" d="M23.92,40.85a4.36,4.36,0,0,1-8.72,0h0a4.36,4.36,0,0,1,8.72,0h0Z" transform="translate(0.15 -1.72)"/><path id="path8195" class="cls-14" d="M22.63,41a3.27,3.27,0,1,1-3.27-3.25A3.26,3.26,0,0,1,22.63,41Z" transform="translate(0.15 -1.72)"/><path id="path18799" class="cls-15" d="M22.63,41a3.27,3.27,0,1,1-3.27-3.25A3.26,3.26,0,0,1,22.63,41Z" transform="translate(0.15 -1.72)"/><path id="path20559" class="cls-16" d="M18.88,37.81a3.26,3.26,0,0,0-1,6.17h0.06a5,5,0,0,0,2.56-6l0,0a3.36,3.36,0,0,0-1.14-.18A3.1,3.1,0,0,0,18.88,37.81Z" transform="translate(0.15 -1.72)"/><path id="path22328" class="cls-17" d="M22.63,41a3.27,3.27,0,1,1-3.27-3.25A3.26,3.26,0,0,1,22.63,41Z" transform="translate(0.15 -1.72)"/></g><path id="path44361" class="cls-4" d="M111.9,57.17c10.32-.06,12,9.45,12,18.36s-1.76,17.67-11.88,18c0-.06,0-0.11,0-0.17V57.93a2.2,2.2,0,0,0-.14-0.75h0.07Z" transform="translate(0.15 -1.72)"/><path id="path44363" class="cls-5" d="M108.15,51.76a4.3,4.3,0,0,0-2.65-1.09,0.82,0.82,0,0,0-.63.83s0.93,12.48.93,24.23-0.43,22.6-.43,22.6a1.2,1.2,0,0,0,1.27,1.39h0.54A3.47,3.47,0,0,0,109.49,98s0.19-10.47.19-22.22-0.74-23-.74-23A2,2,0,0,0,108.15,51.76Z" transform="translate(0.15 -1.72)"/><path id="path44365" class="cls-4" d="M102.75,50.76h-0.46c-1.79,0-3.84,1.27-3.95,6.07,0,0,.22,9,0.22,17.94s-0.22,17.94-.22,17.94c0.06,4.63,2.63,6.82,5.15,6.91l0.59,0a1.16,1.16,0,0,0,1.27-1.16s0.77-11.63.66-23.26S104.92,52,104.92,52C104.92,51.1,103.69,50.72,102.75,50.76Z" transform="translate(0.15 -1.72)"/><path id="path37315" class="cls-18" d="M21.91,51.81h0.24c0.57,0,.57.49,0.57,1.55,0,0-.31,5.16-0.48,16.21s-0.09,27.73-.09,27.73a0.88,0.88,0,0,1-.64,1c-1.68,0-4.39-3.08-4.37-6.34l0-34.68C17.16,56.91,19.53,51.77,21.91,51.81Z" transform="translate(0.15 -1.72)"/><path id="path39944" class="cls-19" d="M21.91,51.81h0.24c0.57,0,.57.49,0.57,1.55,0,0-.31,5.16-0.48,16.21s-0.09,27.73-.09,27.73a0.88,0.88,0,0,1-.64,1c-1.68,0-4.39-3.08-4.37-6.34l0-34.68C17.16,56.91,19.53,51.77,21.91,51.81Z" transform="translate(0.15 -1.72)"/><g id="g44354"><path id="path8174" class="cls-10" d="M15.94,73.56a2.85,2.85,0,0,1-5.7,0h0A2.85,2.85,0,0,1,15.94,73.56Z" transform="translate(0.15 -1.72)"/><path id="path43468" class="cls-20" d="M19.08,42.68a1.11,1.11,0,0,0-1,.54,0.57,0.57,0,0,0-.09.28s0,1.65,0,1.75l-6.1,4.66a4.32,4.32,0,0,0-1.6,1.69,5,5,0,0,0,0,1.81l1.17,19.51s0,0,0,.06,0,0,0,0a1.61,1.61,0,0,0-.06.37,1.68,1.68,0,1,0,3-1s0,0,0,0L13.14,53.22A1,1,0,0,1,13.7,52l6.25-4.72a0.55,0.55,0,0,0,.28-0.46c0-.14,0-3.33,0-3.34a0.55,0.55,0,0,0-.11-0.3A1.11,1.11,0,0,0,19.08,42.68Z" transform="translate(0.15 -1.72)"/><path id="path8178" class="cls-21" d="M19.08,42.68a1.11,1.11,0,0,0-1,.54,0.57,0.57,0,0,0-.09.28s0,1.65,0,1.75l-6.1,4.66a4.32,4.32,0,0,0-1.6,1.69,5,5,0,0,0,0,1.81l1.17,19.51s0,0,0,.06,0,0,0,0a1.61,1.61,0,0,0-.06.37,1.68,1.68,0,1,0,3-1s0,0,0,0L13.14,53.22A1,1,0,0,1,13.7,52l6.25-4.72a0.55,0.55,0,0,0,.28-0.46c0-.14,0-3.33,0-3.34a0.55,0.55,0,0,0-.11-0.3A1.11,1.11,0,0,0,19.08,42.68Z" transform="translate(0.15 -1.72)"/><path id="path40827" class="cls-22" d="M19.08,42.68a1.11,1.11,0,0,0-1,.54,0.57,0.57,0,0,0-.09.28s0,1.65,0,1.75l-6.1,4.66a4.32,4.32,0,0,0-1.6,1.69,5,5,0,0,0,0,1.81l1.17,19.51s0,0,0,.06,0,0,0,0a1.61,1.61,0,0,0-.06.37,1.68,1.68,0,1,0,3-1s0,0,0,0L13.14,53.22A1,1,0,0,1,13.7,52l6.25-4.72a0.55,0.55,0,0,0,.28-0.46c0-.14,0-3.33,0-3.34a0.55,0.55,0,0,0-.11-0.3A1.11,1.11,0,0,0,19.08,42.68Z" transform="translate(0.15 -1.72)"/><path id="path41710" class="cls-23" d="M19.08,42.68a1.11,1.11,0,0,0-1,.54,0.57,0.57,0,0,0-.09.28s0,1.65,0,1.75l-6.1,4.66a4.32,4.32,0,0,0-1.6,1.69,5,5,0,0,0,0,1.81l1.17,19.51s0,0,0,.06,0,0,0,0a1.61,1.61,0,0,0-.06.37,1.68,1.68,0,1,0,3-1s0,0,0,0L13.14,53.22A1,1,0,0,1,13.7,52l6.25-4.72a0.55,0.55,0,0,0,.28-0.46c0-.14,0-3.33,0-3.34a0.55,0.55,0,0,0-.11-0.3A1.11,1.11,0,0,0,19.08,42.68Z" transform="translate(0.15 -1.72)"/></g><path id="path45344" class="cls-24" d="M11.6,50.55a1.69,1.69,0,0,0-1.42,1.3,3,3,0,0,0,.09,1.38l1.17,19.51s0,0,0,.06,0,0,0,0a1.61,1.61,0,0,0-.06.37,1.68,1.68,0,1,0,3-1s0,0,0,0S13.28,57.79,13.07,52A1.5,1.5,0,0,0,11.6,50.55Z" transform="translate(0.15 -1.72)"/><path id="path57748" class="cls-25" d="M112,57.51a2.27,2.27,0,0,1,.12.77V89.39c4.82-3.57,8.19-12,8.19-21.9a40.61,40.61,0,0,0-.65-7.3,10.43,10.43,0,0,0-7.61-2.67H112Z" transform="translate(0.15 -1.72)"/><path id="path44367" class="cls-7" d="M109.7,51.88h-0.24c-0.57,0-.57.49-0.57,1.55,0,0,.31,5.16.48,16.21s0.09,27.73.09,27.73a0.88,0.88,0,0,0,.64,1c1.68,0,4.39-3.08,4.37-6.34l0-34.68C114.44,57,112.07,51.84,109.7,51.88Z" transform="translate(0.15 -1.72)"/><path id="path44371" class="cls-9" d="M99.95,22.1l0,0H100l0.06,0,0.06,0,0,0,0.06,0,0,0,0.06,0.06a68,68,0,0,1,5.91,6.5c2.72,3.48,5.16,7.69,5.23,7.67a3.87,3.87,0,0,1,.72-0.06,4.56,4.56,0,1,1,0,9.11A4.62,4.62,0,0,1,107.5,41a4.48,4.48,0,0,1,1.45-3.31,52.57,52.57,0,0,0-4.65-7.21,62.39,62.39,0,0,0-6.22-6.66s0,0,0,0l0,0a0.84,0.84,0,0,1,0-.09l0,0s0,0,0-.06a1,1,0,0,1,0-.12s0,0,0-.06,0,0,0-.06,0,0,0-.06l0-.06A1.26,1.26,0,0,1,98.1,23l0.06-.09a1.65,1.65,0,0,1,.25-0.25l0.09-.06,0.43-.31a1.83,1.83,0,0,1,.25-0.12,1.45,1.45,0,0,1,.52-0.09h0.25Z" transform="translate(0.15 -1.72)"/><path id="path44373" class="cls-10" d="M99.95,22.1l0,0H100l0.06,0,0.06,0,0,0,0.06,0,0,0,0.06,0.06a68,68,0,0,1,5.91,6.5c2.72,3.48,5.16,7.69,5.23,7.67a3.87,3.87,0,0,1,.72-0.06,4.56,4.56,0,1,1,0,9.11A4.62,4.62,0,0,1,107.5,41a4.48,4.48,0,0,1,1.45-3.31,52.57,52.57,0,0,0-4.65-7.21,62.39,62.39,0,0,0-6.22-6.66s0,0,0,0l0,0a0.84,0.84,0,0,1,0-.09l0,0s0,0,0-.06a1,1,0,0,1,0-.12s0,0,0-.06,0,0,0-.06,0,0,0-.06l0-.06A1.26,1.26,0,0,1,98.1,23l0.06-.09a1.65,1.65,0,0,1,.25-0.25l0.09-.06,0.43-.31a1.83,1.83,0,0,1,.25-0.12,1.45,1.45,0,0,1,.52-0.09h0.25Z" transform="translate(0.15 -1.72)"/><path id="path44375" class="cls-26" d="M99.78,22.1l0,0h0.06l0.06,0,0.06,0,0,0,0.06,0,0,0,0.06,0.06a68,68,0,0,1,5.91,6.5c2.72,3.48,5.16,7.69,5.23,7.67a3.87,3.87,0,0,1,.72-0.06,4.56,4.56,0,1,1,0,9.11A4.62,4.62,0,0,1,107.32,41a4.48,4.48,0,0,1,1.45-3.31,52.57,52.57,0,0,0-4.65-7.21,62.39,62.39,0,0,0-6.22-6.66s0,0,0,0l0,0a0.84,0.84,0,0,1,0-.09l0,0s0,0,0-.06a1,1,0,0,1,0-.12s0,0,0-.06,0,0,0-.06,0,0,0-.06l0-.06A1.26,1.26,0,0,1,97.93,23L98,22.93a1.65,1.65,0,0,1,.25-0.25l0.09-.06,0.43-.31A1.83,1.83,0,0,1,99,22.19a1.45,1.45,0,0,1,.52-0.09h0.25Z" transform="translate(0.15 -1.72)"/><path id="path44377" class="cls-27" d="M99.95,22.1l0,0H100l0.06,0,0.06,0,0,0,0.06,0,0,0,0.06,0.06a68,68,0,0,1,5.91,6.5c2.72,3.48,5.16,7.69,5.23,7.67a3.87,3.87,0,0,1,.72-0.06,4.56,4.56,0,1,1,0,9.11A4.62,4.62,0,0,1,107.5,41a4.48,4.48,0,0,1,1.45-3.31,52.57,52.57,0,0,0-4.65-7.21,62.39,62.39,0,0,0-6.22-6.66s0,0,0,0l0,0a0.84,0.84,0,0,1,0-.09l0,0s0,0,0-.06a1,1,0,0,1,0-.12s0,0,0-.06,0,0,0-.06,0,0,0-.06l0-.06A1.26,1.26,0,0,1,98.1,23l0.06-.09a1.65,1.65,0,0,1,.25-0.25l0.09-.06,0.43-.31a1.83,1.83,0,0,1,.25-0.12,1.45,1.45,0,0,1,.52-0.09h0.25Z" transform="translate(0.15 -1.72)"/><path id="path44379" class="cls-28" d="M107.78,41a4.36,4.36,0,0,0,8.72,0h0a4.36,4.36,0,0,0-8.72,0h0Z" transform="translate(0.15 -1.72)"/><path id="path44381" class="cls-14" d="M109.07,41.21A3.27,3.27,0,1,0,112.33,38,3.26,3.26,0,0,0,109.07,41.21Z" transform="translate(0.15 -1.72)"/><path id="path44383" class="cls-29" d="M109.07,41.21A3.27,3.27,0,1,0,112.33,38,3.26,3.26,0,0,0,109.07,41.21Z" transform="translate(0.15 -1.72)"/><path id="path44385" class="cls-30" d="M109.72,43.25a3.27,3.27,0,0,1,3.58-5.14l0,0a5,5,0,0,1-2.35,6h0a3.35,3.35,0,0,1-.94-0.66A3.08,3.08,0,0,1,109.72,43.25Z" transform="translate(0.15 -1.72)"/><path id="path44387" class="cls-31" d="M108.77,41.3A3.27,3.27,0,1,0,112,38,3.26,3.26,0,0,0,108.77,41.3Z" transform="translate(0.15 -1.72)"/><path id="path6407" class="cls-32" d="M65.61,2.11c-20.29.45-33.93,11.64-38.55,21.5-0.91,2-.23,3.67,2,6,10-10.42,19.49-16,37-16s27.3,6,36.86,16.29c2.59-2.73,2.57-3.86,1.77-6-3.32-8.67-17-21.78-37.87-21.78H65.61Z" transform="translate(0.15 -1.72)"/><path id="path44389" class="cls-33" d="M109.79,51.81h-0.24c-0.57,0-.57.49-0.57,1.55,0,0,.31,5.16.48,16.21s0.09,27.73.09,27.73a0.88,0.88,0,0,0,.64,1c1.68,0,4.39-3.08,4.37-6.34l0-34.68C114.54,56.92,112.17,51.78,109.79,51.81Z" transform="translate(0.15 -1.72)"/><path id="path44391" class="cls-34" d="M109.75,51.68h-0.24c-0.57,0-.57.49-0.57,1.55,0,0,.31,5.16.48,16.21s0.09,27.73.09,27.73a0.88,0.88,0,0,0,.64,1c1.68,0,4.39-3.08,4.37-6.34l0-34.68C114.5,56.79,112.12,51.65,109.75,51.68Z" transform="translate(0.15 -1.72)"/><g id="g44393"><path id="path44395" class="cls-10" d="M115.76,73.74a2.85,2.85,0,0,0,5.7,0h0A2.85,2.85,0,0,0,115.76,73.74Z" transform="translate(0.15 -1.72)"/><path id="path44397" class="cls-20" d="M112.62,42.87a1.11,1.11,0,0,1,1,.54,0.57,0.57,0,0,1,.09.28s0,1.65,0,1.75l6.1,4.66a4.32,4.32,0,0,1,1.6,1.69,5,5,0,0,1,0,1.81L120.31,73.1s0,0,0,.06,0,0,0,0a1.61,1.61,0,0,1,.06.37,1.68,1.68,0,1,1-3-1s0,0,0,0l1.14-19.17a1,1,0,0,0-.55-1.2l-6.25-4.72a0.55,0.55,0,0,1-.28-0.46c0-.14,0-3.33,0-3.34a0.55,0.55,0,0,1,.11-0.3A1.11,1.11,0,0,1,112.62,42.87Z" transform="translate(0.15 -1.72)"/><path id="path44399" class="cls-21" d="M112.62,42.87a1.11,1.11,0,0,1,1,.54,0.57,0.57,0,0,1,.09.28s0,1.65,0,1.75l6.1,4.66a4.32,4.32,0,0,1,1.6,1.69,5,5,0,0,1,0,1.81L120.31,73.1s0,0,0,.06,0,0,0,0a1.61,1.61,0,0,1,.06.37,1.68,1.68,0,1,1-3-1s0,0,0,0l1.14-19.17a1,1,0,0,0-.55-1.2l-6.25-4.72a0.55,0.55,0,0,1-.28-0.46c0-.14,0-3.33,0-3.34a0.55,0.55,0,0,1,.11-0.3A1.11,1.11,0,0,1,112.62,42.87Z" transform="translate(0.15 -1.72)"/><path id="path44401" class="cls-35" d="M112.62,42.87a1.11,1.11,0,0,1,1,.54,0.57,0.57,0,0,1,.09.28s0,1.65,0,1.75l6.1,4.66a4.32,4.32,0,0,1,1.6,1.69,5,5,0,0,1,0,1.81L120.31,73.1s0,0,0,.06,0,0,0,0a1.61,1.61,0,0,1,.06.37,1.68,1.68,0,1,1-3-1s0,0,0,0l1.14-19.17a1,1,0,0,0-.55-1.2l-6.25-4.72a0.55,0.55,0,0,1-.28-0.46c0-.14,0-3.33,0-3.34a0.55,0.55,0,0,1,.11-0.3A1.11,1.11,0,0,1,112.62,42.87Z" transform="translate(0.15 -1.72)"/><path id="path44403" class="cls-36" d="M112.62,42.87a1.11,1.11,0,0,1,1,.54,0.57,0.57,0,0,1,.09.28s0,1.65,0,1.75l6.1,4.66a4.32,4.32,0,0,1,1.6,1.69,5,5,0,0,1,0,1.81L120.31,73.1s0,0,0,.06,0,0,0,0a1.61,1.61,0,0,1,.06.37,1.68,1.68,0,1,1-3-1s0,0,0,0l1.14-19.17a1,1,0,0,0-.55-1.2l-6.25-4.72a0.55,0.55,0,0,1-.28-0.46c0-.14,0-3.33,0-3.34a0.55,0.55,0,0,1,.11-0.3A1.11,1.11,0,0,1,112.62,42.87Z" transform="translate(0.15 -1.72)"/></g><path id="path47133" class="cls-37" d="M120,50.61a1.55,1.55,0,0,1,1.46,1.17,4.07,4.07,0,0,1,.21,1.64s-1.26,19.46-1.27,19.69a4.52,4.52,0,0,1,.12.72,1.81,1.81,0,0,1-1.84,1.63,1.78,1.78,0,0,1-1.73-1.76,2,2,0,0,1,.37-1.1,1,1,0,0,0,.07-0.31s0.93-14.43,1.14-20.19A1.63,1.63,0,0,1,120,50.61Z" transform="translate(0.15 -1.72)"/><path id="path48010" class="cls-38" d="M21.76,52.63c-2.24.33-4.43,5-4.5,5.43v17.3a29.38,29.38,0,0,1,5.2-10.71c0.17-7.1.37-10.46,0.37-10.46a3.61,3.61,0,0,0-.12-1.32l0-.06,0,0,0,0,0,0,0,0-0.12,0-0.06,0H22A1.68,1.68,0,0,0,21.76,52.63Z" transform="translate(0.15 -1.72)"/><path id="path48898" class="cls-39" d="M109.44,52l-0.06,0-0.12,0,0,0,0,0,0,0,0,0,0,0.06a3.61,3.61,0,0,0-.12,1.32s0.32,5.15.49,16.2c0.12,7.73.11,18.2,0.09,23.8,1.69-6.74,2.74-16.3,2.74-26.9,0-4.85-.22-9.5-0.62-13.74a2.88,2.88,0,0,0-1.91-.92h-0.34Z" transform="translate(0.15 -1.72)"/><path id="path48913" class="cls-40" d="M18.87,42.47A1.13,1.13,0,0,0,18,43l0,0.06,0,0.09s0,0,0,0l0,0.06s0,0,0,0,0,1.65,0,1.75-0.53.37-1.17,0.86c0,0,0,0,0,0a11,11,0,0,0,.46,3.22h0c1-.79,2-1.58,2.68-2.06A1,1,0,0,0,20,47l0.06-.09a0.71,0.71,0,0,0,0-.09,1,1,0,0,0,0-.09s0,0,0-.06,0.15-3.17.07-3.3A1.84,1.84,0,0,0,19.93,43a1.37,1.37,0,0,0-.9-0.51H18.87Z" transform="translate(0.15 -1.72)"/><path id="path49816" class="cls-41" d="M112.81,42.87a1.33,1.33,0,0,1,1,.55s0.1,0.23.11,0.25a9.82,9.82,0,0,1-1.28,2.75s-1.32.64-1.32,0.62,0-3.33,0-3.34l0.11-.31a1.35,1.35,0,0,1,1.2-.52h0.18Z" transform="translate(0.15 -1.72)"/><path id="path49820" class="cls-42" d="M23.73,51.82a3.52,3.52,0,0,1,2.34-.72c0.36,0-1.28,6.18-.54,2.73a168.29,168.29,0,0,0-1.42,21.54l0.34,24a2.88,2.88,0,0,1-2-1.75s0.3-10.35.3-22.09S23.12,53,23.12,53A2,2,0,0,1,23.73,51.82Z" transform="translate(0.15 -1.72)"/><path id="path52457" class="cls-43" d="M108.27,51.63a4.3,4.3,0,0,0-2.65-1.09,0.82,0.82,0,0,0-.63.83s0.93,12.48.93,24.23-0.43,22.6-.43,22.6a1.2,1.2,0,0,0,1.27,1.39h0.54a3.47,3.47,0,0,0,2.32-1.69s0.19-10.47.19-22.22-0.74-23-.74-23A2,2,0,0,0,108.27,51.63Z" transform="translate(0.15 -1.72)"/><path id="path53340" class="cls-44" d="M108.27,51.63a4.3,4.3,0,0,0-2.65-1.09,0.82,0.82,0,0,0-.63.83s0.93,12.48.93,24.23-0.43,22.6-.43,22.6a1.2,1.2,0,0,0,1.27,1.39h0.54a3.47,3.47,0,0,0,2.32-1.69s0.19-10.47.19-22.22-0.74-23-.74-23A2,2,0,0,0,108.27,51.63Z" transform="translate(0.15 -1.72)"/><path id="path55098" class="cls-45" d="M23.55,51.75a4.3,4.3,0,0,1,2.65-1.09,0.82,0.82,0,0,1,.63.83S25.91,64,25.91,75.73s0.43,22.6.43,22.6a1.2,1.2,0,0,1-1.27,1.39H24.52A3.47,3.47,0,0,1,22.21,98S22,87.56,22,75.81s0.74-23,.74-23A2,2,0,0,1,23.55,51.75Z" transform="translate(0.15 -1.72)"/><path id="path59507" class="cls-46" d="M65.38,1.85c-20.16.54-33.71,11.68-38.31,21.5-0.88,1.88-.27,3.54,1.79,5.74a12.35,12.35,0,0,1-.22-2.67C28.92,14.39,46.38,3.5,68.5,4,78.26,4.27,87.88,8,94.76,11.3A44.88,44.88,0,0,0,66.82,1.85H65.38Z" transform="translate(0.15 -1.72)"/></g><g id="path63912" class="cls-47"><path class="cls-48" d="M77.75,112.16c-0.13,3.83-6.47,6.74-14.14,6.5s-13.8-3.54-13.66-7.38h0c0.13-3.83,6.47-6.74,14.14-6.5S77.89,108.33,77.75,112.16Z" transform="translate(0.15 -1.72)"/></g></g></svg>