<?xml version="1.0" encoding="utf-8"?>
<!-- Generator: Adobe Illustrator 15.0.0, SVG Export Plug-In . SVG Version: 6.00 Build 0)  -->
<!DOCTYPE svg PUBLIC "-//W3C//DTD SVG 1.1//EN" "http://www.w3.org/Graphics/SVG/1.1/DTD/svg11.dtd">
<svg version="1.1"
	 id="svg2108" xmlns:rdf="http://www.w3.org/1999/02/22-rdf-syntax-ns#" xmlns:cc="http://web.resource.org/cc/" xmlns:dc="http://purl.org/dc/elements/1.1/"
	 xmlns="http://www.w3.org/2000/svg" xmlns:xlink="http://www.w3.org/1999/xlink" x="0px" y="0px" width="48px" height="48px"
	 viewBox="0 0 48 48" enable-background="new 0 0 48 48" xml:space="preserve">
<filter  height="1.5669" width="1.1522" y="-.28345" x="-.076111" id="filter5655">
	<feGaussianBlur  id="feGaussianBlur5657" stdDeviation="1.4531044"></feGaussianBlur>
</filter>
<g id="layer1">
	
		<linearGradient id="path4173_1_" gradientUnits="userSpaceOnUse" x1="-63.0874" y1="87.4932" x2="-63.0874" y2="81.2458" gradientTransform="matrix(1.3384 0 0 -1.3384 100.6414 135.9557)">
		<stop  offset="0" style="stop-color:#FFFFFF"/>
		<stop  offset="1" style="stop-color:#C9C9C9"/>
	</linearGradient>
	<path id="path4173" fill="url(#path4173_1_)" d="M13.365,24.85h5.679l-3.313-3.075l-0.709,0.946l-0.71-0.71L13.365,24.85z"/>
	
		<linearGradient id="path4370_1_" gradientUnits="userSpaceOnUse" x1="-619.9922" y1="24.0664" x2="-621.2712" y2="24.7164" gradientTransform="matrix(-1.3085 0.2812 -0.2812 -1.3085 -785.8944 232.3072)">
		<stop  offset="0" style="stop-color:#000000"/>
		<stop  offset="1" style="stop-color:#000000;stop-opacity:0"/>
	</linearGradient>
	<path id="path4370" opacity="0.2279" fill="url(#path4370_1_)" enable-background="new    " d="M19.883,32.491
		c1.648-0.778,2.415-2.681,2.415-2.681c-1.284-5.411-5.322-9.158-5.322-9.158S20.275,29.141,19.883,32.491z"/>
</g>
<g id="layer2">
	<g id="rect4608" opacity="0.3486" filter="url(#filter5655)" enable-background="new    ">
		<path d="M11.335,35.428h26.121c2.647,0,4.794,2.146,4.794,4.795l0,0c0,2.646-2.146,4.793-4.794,4.793H11.335
			c-2.648,0-4.794-2.146-4.794-4.793l0,0C6.541,37.574,8.687,35.428,11.335,35.428z"/>
	</g>
	
		<radialGradient id="path4308_1_" cx="-78.9766" cy="94.4219" r="17.9848" gradientTransform="matrix(1.3545 0 0 -1.3664 131.5573 155.7869)" gradientUnits="userSpaceOnUse">
		<stop  offset="0" style="stop-color:#FFFFFF"/>
		<stop  offset="1" style="stop-color:#D6D6D2"/>
	</radialGradient>
	<path id="path4308" fill="url(#path4308_1_)" stroke="#888A85" stroke-linecap="round" stroke-linejoin="round" d="M17.919,43.518
		h14.194c4.023,0,8.005-1.476,9.465-5.679c1.386-3.991,0.236-11.593-8.754-17.744H16.026c-8.99,5.678-10.114,13.443-8.043,17.98
		C10.091,42.697,13.66,43.518,17.919,43.518z"/>
	
		<linearGradient id="path4364_1_" gradientUnits="userSpaceOnUse" x1="-619.9922" y1="24.0674" x2="-621.2711" y2="24.7173" gradientTransform="matrix(-1.3085 0.2812 -0.2812 -1.3085 -767.5741 241.2818)">
		<stop  offset="0" style="stop-color:#000000"/>
		<stop  offset="1" style="stop-color:#000000;stop-opacity:0"/>
	</linearGradient>
	<path id="path4364" opacity="0.2912" fill="url(#path4364_1_)" enable-background="new    " d="M38.204,41.464
		c1.647-0.776,2.415-2.68,2.415-2.68c-1.284-5.41-5.322-9.158-5.322-9.158S38.596,38.115,38.204,41.464z"/>
	
		<linearGradient id="path4354_1_" gradientUnits="userSpaceOnUse" x1="-47.1289" y1="139.4395" x2="-45.1639" y2="139.0395" gradientTransform="matrix(1.3161 0.243 0.243 -1.3161 37.8821 229.7747)">
		<stop  offset="0" style="stop-color:#000000"/>
		<stop  offset="1" style="stop-color:#000000;stop-opacity:0"/>
	</linearGradient>
	<path id="path4354" opacity="0.5494" fill="url(#path4354_1_)" enable-background="new    " d="M11.643,42.046
		c-1.67-0.729-2.417-2.487-2.417-2.487c1.126-5.445,4.979-9.43,4.979-9.43S11.154,38.71,11.643,42.046z"/>
	
		<path id="path4314" opacity="0.6429" fill="none" stroke="#FFFFFF" stroke-linecap="round" stroke-linejoin="round" enable-background="new    " d="
		M17.593,42.482l14.528-0.03c3.654,0,7.273-1.341,8.6-5.159c1.258-3.627-0.132-10.533-8.301-16.123l-15.956-0.337
		c-8.168,5.16-9.75,12.215-7.838,16.675C10.537,41.967,13.326,42.452,17.593,42.482z"/>
	
		<radialGradient id="path4318_1_" cx="-69.0967" cy="98.0381" r="8.6619" gradientTransform="matrix(1.3384 0 0 -1.3384 117.0936 149.1335)" gradientUnits="userSpaceOnUse">
		<stop  offset="0" style="stop-color:#000000"/>
		<stop  offset="1" style="stop-color:#000000;stop-opacity:0"/>
	</radialGradient>
	<path id="path4318" fill="url(#path4318_1_)" d="M36.208,17.919c0.03,6.402-5.135,11.618-11.538,11.649
		c-6.402,0.031-11.618-5.135-11.648-11.538c0-0.037,0-0.074,0-0.111C12.991,11.517,18.156,6.301,24.559,6.27
		c6.402-0.031,11.619,5.135,11.649,11.538C36.208,17.845,36.208,17.882,36.208,17.919z"/>
	
		<radialGradient id="path4320_1_" cx="163.9424" cy="-59.126" r="17.986" gradientTransform="matrix(0.7475 0 0 -0.754 -97.1347 -37.5826)" gradientUnits="userSpaceOnUse">
		<stop  offset="0" style="stop-color:#FFFFFF"/>
		<stop  offset="1" style="stop-color:#D6D6D2"/>
	</radialGradient>
	
		<path id="path4320" fill="url(#path4320_1_)" stroke="#888A85" stroke-width="0.7472" stroke-linecap="round" stroke-linejoin="round" d="
		M36.375,13.235c0.031,6.402-5.135,11.619-11.537,11.649c-6.403,0.03-11.619-5.135-11.649-11.538c0-0.037,0-0.074,0-0.111
		C13.158,6.832,18.323,1.617,24.727,1.585c6.402-0.031,11.617,5.135,11.648,11.538C36.375,13.16,36.375,13.198,36.375,13.235z"/>
	
		<path id="path4322" opacity="0.1962" fill="none" stroke="#FFFFFF" stroke-width="0.823" stroke-linecap="round" stroke-linejoin="round" enable-background="new    " d="
		M35.305,13.234c0.027,5.812-4.662,10.548-10.475,10.576c-5.813,0.028-10.548-4.662-10.576-10.475c0-0.034,0-0.067,0-0.101
		C14.226,7.421,18.916,2.686,24.729,2.658c5.812-0.028,10.549,4.662,10.576,10.475C35.305,13.166,35.305,13.2,35.305,13.234z"/>
</g>
<g transform="matrix(0.71714,0,0,0.71744,-32.79375,1.5)">
	<path id="p1" opacity="0.36" fill="#999999" enable-background="new    " d="M87.003,51.344c0,6.369,5.181,11.551,11.549,11.551
		c6.37,0,11.552-5.182,11.552-11.551c0-6.369-5.181-11.551-11.552-11.551C92.184,39.793,87.003,44.975,87.003,51.344z"/>
	<path id="p2" fill="#0066CC" d="M85.905,50.674c0,6.369,5.181,11.551,11.55,11.551c6.369,0,11.55-5.182,11.55-11.551
		c0-6.369-5.181-11.551-11.55-11.551C91.087,39.123,85.905,44.305,85.905,50.674z"/>
	
		<radialGradient id="p3_1_" cx="391.8693" cy="-149.6974" r="17.7541" gradientTransform="matrix(0.7171 0 0 -0.7174 -189.2616 -61.4118)" gradientUnits="userSpaceOnUse">
		<stop  offset="0" style="stop-color:#0066CC"/>
		<stop  offset="1" style="stop-color:#003399"/>
	</radialGradient>
	<path id="p3" fill="url(#p3_1_)" d="M86.742,50.506c0,5.917,4.797,10.714,10.714,10.714c5.917,0,10.713-4.797,10.713-10.714
		c0-5.917-4.795-10.714-10.713-10.714C91.539,39.793,86.742,44.589,86.742,50.506z"/>
	<path id="p4" opacity="0.36" fill="#FFFFFF" enable-background="new    " d="M87.914,51.553c0-6.282,4.49-11.415,10.138-11.743
		c-0.197-0.01-0.396-0.018-0.596-0.018c-5.915,0-10.714,4.797-10.714,10.714c0,2.733,1.027,5.227,2.71,7.119
		C88.476,55.853,87.914,53.775,87.914,51.553z"/>
	
		<linearGradient id="p5_1_" gradientUnits="userSpaceOnUse" x1="399.8192" y1="-145.4642" x2="399.8192" y2="-155.0061" gradientTransform="matrix(0.7171 0 0 -0.7174 -189.2616 -61.4118)">
		<stop  offset="0" style="stop-color:#FFFFFF"/>
		<stop  offset="1" style="stop-color:#0D3692"/>
	</linearGradient>
	<path id="p5" opacity="0.5" fill="url(#p5_1_)" enable-background="new    " d="M97.621,49.981c3.628,0,6.967-0.527,9.618-1.412
		c-0.846-4.991-4.904-8.776-9.783-8.776c-4.842,0-8.877,3.731-9.764,8.671C90.391,49.412,93.85,49.981,97.621,49.981z"/>
</g>
<path id="_x3F_" fill="#FFFFFF" d="M37.569,31.794c-1.914-0.007-4.044,0.761-4.042,2.693c0.083,1.244,1.22,1.603,2.142,0.963
	c0.233-0.202,0.355-0.463,0.364-0.795c0.014-0.362-0.151-0.599-0.364-0.71c-0.213-0.112-0.334-0.228-0.364-0.337
	c0.103-0.805,0.917-0.793,1.542-0.823c1.278-0.014,2.064,0.548,2.126,1.87c0.061,1.306-1.106,2.229-2.122,2.812
	c-0.489,0.28-0.488,0.645-0.438,1.346c0.058,0.77,0.131,1.174,0.151,1.424l0.887-0.02c0.034-0.651,0.136-1.457,0.335-1.816
	c0.396-0.637,1.544-0.495,2.664-1.765c1.098-1.163,0.938-3.07-0.647-4.135c-0.772-0.52-1.371-0.705-2.235-0.708H37.569z
	 M37.096,41.031c-0.717,0-1.317,0.601-1.317,1.319c0,0.718,0.601,1.309,1.317,1.309c0.719,0,1.31-0.591,1.31-1.309
	C38.405,41.632,37.814,41.031,37.096,41.031z"/>
</svg>
