<?xml version="1.0" encoding="utf-8"?>
<!-- Generator: Adobe Illustrator 19.0.0, SVG Export Plug-In . SVG Version: 6.00 Build 0)  -->
<svg version="1.1" id="Ebene_1" xmlns="http://www.w3.org/2000/svg" xmlns:xlink="http://www.w3.org/1999/xlink" x="0px" y="0px"
	 viewBox="0 0 50 50" style="enable-background:new 0 0 50 50;" xml:space="preserve">
<style type="text/css">
	.st0{fill:url(#rect3408_1_);}
	.st1{fill:url(#rect3410_1_);}
	.st2{fill:url(#rect3412_1_);}
	.st3{fill:url(#rect3414_1_);}
	.st4{fill:url(#path3416_1_);stroke:#444444;}
	.st5{fill:url(#rect3418_1_);}
	.st6{fill:url(#path3420_1_);}
	.st7{fill:#FFFFFF;fill-opacity:0.7202;}
	.st8{opacity:0.4148;}
	.st9{fill:url(#rect5040_1_);stroke:#888A85;}
	.st10{fill:url(#rect9208_1_);stroke:#214B88;}
	.st11{fill:none;stroke:#FFFFFF;stroke-width:1;}
	.st12{opacity:0.75;fill:url(#path4073_1_);enable-background:new    ;}
	.st13{fill:#EEEEED;}
	.st14{fill:#729FCF;}
	.st15{fill:#D4D7D0;}
</style>
<g id="layer2_1_" inkscape:label="Desktop" inkscape:groupmode="layer">
	<g id="g891" transform="matrix(0.186703,0,0,0.186703,24.27821,58.35791)">
	</g>
	<g id="g2299" transform="translate(-10,13.18088)" inkscape:label="Shadow">
	</g>
	<g id="g2301" transform="translate(-10,28.24691)" inkscape:label="Shadow">
	</g>
	<g id="g2303" transform="translate(-10,28.24691)" inkscape:label="Lavoro">
	</g>
	<g id="g3270" transform="translate(38,0.18088)" inkscape:label="Shadow">
	</g>
	<g id="g2611" transform="translate(38,15.24691)" inkscape:label="Shadow">
	</g>
	<g id="g2613" transform="translate(38,15.24691)" inkscape:label="Lavoro">
	</g>
	<g id="g4766" transform="translate(-92,-2)">
		<g id="g3404" transform="translate(92.5832,1.154552)" inkscape:r_cx="true" inkscape:r_cy="true">
			<g id="g3406" inkscape:r_cx="true" inkscape:r_cy="true" inkscape:label="Folder">
				
					<linearGradient id="rect3408_1_" gradientUnits="userSpaceOnUse" x1="-14.2389" y1="-113.9657" x2="0.3298" y2="-113.9657" gradientTransform="matrix(2.7402 0 0 -0.3649 43.7789 3.4521)">
					<stop  offset="0" style="stop-color:#686969;stop-opacity:0"/>
					<stop  offset="0.2376" style="stop-color:#686969"/>
					<stop  offset="0.7811" style="stop-color:#686969"/>
					<stop  offset="1" style="stop-color:#686969;stop-opacity:0"/>
				</linearGradient>
				<rect id="rect3408" x="5.3" y="42.9" inkscape:r_cx="true" inkscape:r_cy="true" class="st0" width="38.9" height="4.3">
				</rect>
				
					<linearGradient id="rect3410_1_" gradientUnits="userSpaceOnUse" x1="-21.0481" y1="-416.7195" x2="-16.2912" y2="-416.7195" gradientTransform="matrix(8.1686 0 0 -0.2212 177.2271 -44.9841)">
					<stop  offset="0" style="stop-color:#484848;stop-opacity:0"/>
					<stop  offset="0.1" style="stop-color:#484848"/>
					<stop  offset="0.9" style="stop-color:#484848"/>
					<stop  offset="1" style="stop-color:#484848;stop-opacity:0"/>
				</linearGradient>
				<rect id="rect3410" x="5.3" y="46.7" inkscape:r_cx="true" inkscape:r_cy="true" class="st1" width="38.9" height="1.1">
				</rect>
				
					<linearGradient id="rect3412_1_" gradientUnits="userSpaceOnUse" x1="-21.0481" y1="-376.2498" x2="-16.2912" y2="-376.2498" gradientTransform="matrix(8.1686 0 0 -0.2286 177.2271 -43.1145)">
					<stop  offset="0" style="stop-color:#484848;stop-opacity:0"/>
					<stop  offset="0.1" style="stop-color:#484848"/>
					<stop  offset="0.9" style="stop-color:#484848"/>
					<stop  offset="1" style="stop-color:#484848;stop-opacity:0"/>
				</linearGradient>
				<rect id="rect3412" x="5.3" y="42.4" inkscape:r_cx="true" inkscape:r_cy="true" class="st2" width="38.9" height="1.1">
				</rect>
				
					<linearGradient id="rect3414_1_" gradientUnits="userSpaceOnUse" x1="-14.2389" y1="-221.1538" x2="0.3298" y2="-221.1538" gradientTransform="matrix(2.7402 0 0 -0.1477 43.7789 11.9427)">
					<stop  offset="0" style="stop-color:#FFFFFF;stop-opacity:0"/>
					<stop  offset="0.1083" style="stop-color:#FFFFFF;stop-opacity:0.7066"/>
					<stop  offset="0.9205" style="stop-color:#FFFFFF;stop-opacity:0.7066"/>
					<stop  offset="1" style="stop-color:#FFFFFF;stop-opacity:0"/>
				</linearGradient>
				<rect id="rect3414" x="5.3" y="43.7" inkscape:r_cx="true" inkscape:r_cy="true" class="st3" width="38.9" height="1.7">
				</rect>
				
					<linearGradient id="path3416_1_" gradientUnits="userSpaceOnUse" x1="24.3227" y1="12.5367" x2="24.3227" y2="6.5621" gradientTransform="matrix(0.9838 0 0 -1.0165 0.6018 54.5187)">
					<stop  offset="0" style="stop-color:#7B7B7B"/>
					<stop  offset="0.198" style="stop-color:#C6C5C5"/>
					<stop  offset="0.599" style="stop-color:#636363"/>
					<stop  offset="1" style="stop-color:#888888"/>
				</linearGradient>
				<path id="path3416" inkscape:r_cx="true" inkscape:r_cy="true" class="st4" d="M22.8,31.7c-0.8,0-1.5,0.7-1.5,1.5v8.1h-3.3
					c-0.8,0-1.5,0.7-1.5,1.5v4c0,0.8,0.7,1.5,1.5,1.5h13c0.8,0,1.5-0.7,1.5-1.5v-4c0-0.8-0.7-1.5-1.5-1.5h-2.8v-8.1
					c0-0.8-0.7-1.5-1.5-1.5H22.8z"/>
				
					<linearGradient id="rect3418_1_" gradientUnits="userSpaceOnUse" x1="33.6485" y1="39.4226" x2="35.4902" y2="39.4226" gradientTransform="matrix(1.1387 0 0 -1.7321 -16.0082 108.0082)">
					<stop  offset="0" style="stop-color:#FFFFFF;stop-opacity:0.4491"/>
					<stop  offset="1" style="stop-color:#FFFFFF;stop-opacity:0"/>
				</linearGradient>
				<path id="rect3418" inkscape:r_cx="true" inkscape:r_cy="true" class="st5" d="M22.6,38.1h1.5c0.2,0,0.3,0.1,0.3,0.3V41
					c0,0.2-0.1,0.3-0.3,0.3h-1.5c-0.2,0-0.3-0.1-0.3-0.3v-2.6C22.3,38.3,22.4,38.1,22.6,38.1z"/>
				
					<linearGradient id="path3420_1_" gradientUnits="userSpaceOnUse" x1="34.984" y1="25.6616" x2="35.1446" y2="24.0166" gradientTransform="matrix(0.8108 0 0 -1.2333 -3.6507 69.4547)">
					<stop  offset="0" style="stop-color:#010101;stop-opacity:0.503"/>
					<stop  offset="1" style="stop-color:#010101;stop-opacity:0"/>
				</linearGradient>
				<path id="path3420" inkscape:r_cx="true" inkscape:r_cy="true" sodipodi:nodetypes="cccc" class="st6" d="M27.7,37.7h-5.9
					c0,0,0,1.8,0,2.3C22.4,38.1,27.7,37.7,27.7,37.7z"/>
				<g id="g3422" transform="translate(-0.610968,0.736037)" inkscape:r_cx="true" inkscape:r_cy="true">
					<path id="rect3424" inkscape:r_cx="true" inkscape:r_cy="true" class="st7" d="M21.3,42.5h9.6c0.3,0,0.5,0.2,0.5,0.5l0,0
						c0,0.3-0.2,0.5-0.5,0.5h-9.6c-0.3,0-0.5-0.2-0.5-0.5l0,0C20.8,42.8,21,42.5,21.3,42.5z"/>
					
						<path id="path3426" sodipodi:ry="0.53125" sodipodi:rx="0.53125" inkscape:r_cx="true" inkscape:r_cy="true" sodipodi:type="arc" sodipodi:cx="18.46875" sodipodi:cy="40.625" class="st7" d="
						M19.8,43.1c0,0.3-0.3,0.6-0.6,0.6s-0.6-0.3-0.6-0.6s0.3-0.6,0.6-0.6S19.8,42.8,19.8,43.1z"/>
				</g>
				<g id="g3428" transform="translate(1.237435,-4.090477)" inkscape:r_cx="true" inkscape:r_cy="true">
					
						<g id="g3430" transform="matrix(1.040764,0,5.449252e-2,1.040764,-8.670199,2.670594)" inkscape:r_cx="true" inkscape:r_cy="true" inkscape:export-ydpi="74.800003" inkscape:export-xdpi="74.800003" inkscape:export-filename="/home/jimmac/ximian_art/icons/nautilus/suse93/gnome-fs-directory.png">
					</g>
					
						<g id="g3432" transform="matrix(1.040764,0,5.449252e-2,1.365642,-8.358528,0.921788)" inkscape:r_cx="true" inkscape:r_cy="true" inkscape:export-ydpi="74.800003" inkscape:export-xdpi="74.800003" inkscape:export-filename="/home/jimmac/ximian_art/icons/nautilus/suse93/gnome-fs-directory.png" class="st8">
					</g>
				</g>
			</g>
			<g id="g3434" inkscape:r_cx="true" inkscape:r_cy="true" inkscape:label="pattern">
			</g>
		</g>
		<g id="g4749">
			
				<linearGradient id="rect5040_1_" gradientUnits="userSpaceOnUse" x1="107.849" y1="45.8982" x2="131.9409" y2="11.3396" gradientTransform="matrix(1 0 0 -1 -2.938843e-002 54.9763)">
				<stop  offset="0" style="stop-color:#EEEEED"/>
				<stop  offset="1" style="stop-color:#E6E6E3"/>
			</linearGradient>
			<path id="rect5040" sodipodi:nodetypes="ccccccccc" class="st9" d="M96.7,4.6h40.5c2.2,0,3.7,1.5,3.7,3.9l0,27.9
				c0,1.8-0.6,2.4-2.2,2.4l-43.6,0c-1.3,0-2.1-0.5-2.2-2.1l0-28.3C93.1,6.4,94.7,4.6,96.7,4.6z"/>
			
				<radialGradient id="rect9208_1_" cx="112.3003" cy="11.9851" r="20.2037" gradientTransform="matrix(1.2326 0 0 -0.7784 -21.4331 39.8453)" gradientUnits="userSpaceOnUse">
				<stop  offset="0" style="stop-color:#729FCF"/>
				<stop  offset="1" style="stop-color:#336195"/>
			</radialGradient>
			<rect id="rect9208" x="97.3" y="8.9" class="st10" width="39.3" height="24.5"/>
			<path id="path5145" class="st11" d="M96.8,5.7c-1.4,0-2.6,1.4-2.6,2.7l0,28c0,0.6,0.1,0.8,0.3,1c0.1,0.1,0.5,0.3,1,0.3h43.2
				c0.7,0,0.9-0.1,1-0.2s0.2-0.4,0.2-1.2V8.6c0-1.9-1.1-2.9-2.8-2.9H96.8z"/>
			
				<linearGradient id="path4073_1_" gradientUnits="userSpaceOnUse" x1="117.0234" y1="48.64" x2="117.0234" y2="26.374" gradientTransform="matrix(1 0 0 -1 -2.938843e-002 54.9763)">
				<stop  offset="0" style="stop-color:#FFFFFF"/>
				<stop  offset="1" style="stop-color:#FFFFFF;stop-opacity:0"/>
			</linearGradient>
			<path id="path4073" sodipodi:nodetypes="ccccc" class="st12" d="M97.9,9.5v19.1c17.5-1.4,24-10.8,38.2-11.7V9.4L97.9,9.5z"/>
			<rect id="rect4725" x="97.9" y="9.4" class="st13" width="38.3" height="1.1"/>
			<path id="rect4727" class="st13" d="M108.4,15.8h8.6c0.6,0,1,0.4,1,1v7.6c0,0.6-0.4,1-1,1h-8.6c-0.6,0-1-0.4-1-1v-7.6
				C107.4,16.3,107.9,15.8,108.4,15.8z"/>
			<rect id="rect4729" x="108.5" y="16.9" class="st14" width="8.5" height="1.1"/>
			<path id="rect4731" class="st13" d="M121.2,18H133c0.6,0,1,0.4,1,1v10.8c0,0.6-0.4,1-1,1h-11.8c-0.6,0-1-0.4-1-1V18.9
				C120.2,18.4,120.7,18,121.2,18z"/>
			<rect id="rect4733" x="121.3" y="19" class="st14" width="11.7" height="1.1"/>
			<rect id="rect4735" x="98.9" y="10.5" class="st13" width="5.3" height="10.6"/>
			<rect id="rect4737" x="100" y="10.5" class="st15" width="3.2" height="1.1"/>
			<rect id="rect4739" x="100" y="12.6" class="st15" width="3.2" height="1.1"/>
			<rect id="rect4741" x="100" y="14.8" class="st15" width="3.2" height="1.1"/>
			<rect id="rect4743" x="100" y="16.9" class="st15" width="3.2" height="1.1"/>
			<rect id="rect4745" x="100" y="19" class="st15" width="3.2" height="1.1"/>
		</g>
	</g>
</g>
</svg>
