<?xml version="1.0" encoding="utf-8"?>
<!-- Generator: Adobe Illustrator 19.0.0, SVG Export Plug-In . SVG Version: 6.00 Build 0)  -->
<svg version="1.1" id="Ebene_1" xmlns="http://www.w3.org/2000/svg" xmlns:xlink="http://www.w3.org/1999/xlink" x="0px" y="0px"
	 viewBox="0 0 50 50" style="enable-background:new 0 0 50 50;" xml:space="preserve">
<style type="text/css">
	.st0{fill:url(#path4173_1_);}
	.st1{opacity:0.2279;fill:url(#path4370_1_);enable-background:new    ;}
	.st2{opacity:0.3486;enable-background:new    ;}
	.st3{fill:#040404;}
	.st4{fill:url(#path4308_1_);stroke:#8A8A86;stroke-linecap:round;stroke-linejoin:round;}
	.st5{opacity:0.2912;fill:url(#path4364_1_);enable-background:new    ;}
	.st6{opacity:0.5494;fill:url(#path4354_1_);enable-background:new    ;}
	.st7{opacity:0.6429;fill:none;stroke:#FFFFFF;stroke-linecap:round;stroke-linejoin:round;enable-background:new    ;}
	.st8{fill:url(#path4318_1_);}
	.st9{fill:url(#path4320_1_);stroke:#8A8A86;stroke-width:0.7472;stroke-linecap:round;stroke-linejoin:round;}
	
		.st10{opacity:0.1962;fill:none;stroke:#FFFFFF;stroke-width:0.823;stroke-linecap:round;stroke-linejoin:round;enable-background:new    ;}
	.st11{opacity:0.36;fill:#989898;enable-background:new    ;}
	.st12{fill:#3169B3;}
	.st13{fill:url(#p3_1_);}
	.st14{opacity:0.36;fill:#FFFFFF;enable-background:new    ;}
	.st15{opacity:0.5;fill:url(#p5_1_);enable-background:new    ;}
	.st16{fill:#FFFFFF;}
</style>
<g id="XMLID_1_">
	<g id="layer1">
		
			<linearGradient id="path4173_1_" gradientUnits="userSpaceOnUse" x1="-69.9076" y1="84.656" x2="-69.9076" y2="78.4086" gradientTransform="matrix(1.3384 0 0 -1.3384 108.4246 133.0317)">
			<stop  offset="0" style="stop-color:#FFFFFF"/>
			<stop  offset="1" style="stop-color:#CAC9C9"/>
		</linearGradient>
		<path id="path4173" class="st0" d="M12.1,25.8h5.6l-3.3-3.1l-0.7,0.9L13,22.9L12.1,25.8z"/>
		
			<linearGradient id="path4370_1_" gradientUnits="userSpaceOnUse" x1="-655.0841" y1="18.1935" x2="-656.3631" y2="18.8435" gradientTransform="matrix(-1.3085 0.2812 -0.2812 -1.3085 -834.7719 235.4023)">
			<stop  offset="0" style="stop-color:#040404"/>
			<stop  offset="1" style="stop-color:#040404;stop-opacity:0"/>
		</linearGradient>
		<path id="path4370" class="st1" d="M18.6,33.4c1.6-0.8,2.4-2.7,2.4-2.7c-1.3-5.4-5.3-9.1-5.3-9.1S19,30,18.6,33.4z"/>
	</g>
	<g id="layer2">
		<g id="rect4608" class="st2">
			<path id="XMLID_4_" class="st3" d="M10,36.3h26.1c2.6,0,4.8,2.1,4.8,4.8l0,0c0,2.6-2.1,4.8-4.8,4.8H10c-2.6,0-4.8-2.1-4.8-4.8
				l0,0C5.2,38.5,7.4,36.3,10,36.3z"/>
		</g>
		
			<radialGradient id="path4308_1_" cx="-85.9796" cy="91.9502" r="17.9773" gradientTransform="matrix(1.3545 0 0 -1.3664 139.7108 153.2829)" gradientUnits="userSpaceOnUse">
			<stop  offset="0" style="stop-color:#FFFFFF"/>
			<stop  offset="1" style="stop-color:#D6D7D2"/>
		</radialGradient>
		<path id="path4308" class="st4" d="M16.6,44.4h14.2c4,0,8-1.5,9.5-5.7c1.4-4,0.2-11.6-8.8-17.7H14.7c-9,5.7-10.1,13.4-8,18
			S12.4,44.4,16.6,44.4z"/>
		
			<linearGradient id="path4364_1_" gradientUnits="userSpaceOnUse" x1="-655.0737" y1="18.2149" x2="-656.3527" y2="18.8648" gradientTransform="matrix(-1.3085 0.2812 -0.2812 -1.3085 -816.4516 244.3769)">
			<stop  offset="0" style="stop-color:#040404"/>
			<stop  offset="1" style="stop-color:#040404;stop-opacity:0"/>
		</linearGradient>
		<path id="path4364" class="st5" d="M36.9,42.4c1.6-0.8,2.4-2.7,2.4-2.7C38,34.3,34,30.5,34,30.5S37.3,39,36.9,42.4z"/>
		
			<linearGradient id="path4354_1_" gradientUnits="userSpaceOnUse" x1="-50.9704" y1="139.8576" x2="-49.0054" y2="139.4576" gradientTransform="matrix(1.3161 0.243 0.243 -1.3161 41.5074 232.1052)">
			<stop  offset="0" style="stop-color:#040404"/>
			<stop  offset="1" style="stop-color:#040404;stop-opacity:0"/>
		</linearGradient>
		<path id="path4354" class="st6" d="M10.3,42.9c-1.7-0.7-2.4-2.5-2.4-2.5c1.1-5.4,5-9.4,5-9.4S9.9,39.6,10.3,42.9z"/>
		<path id="path4314" class="st7" d="M16.3,43.4h14.5c3.7,0,7.3-1.3,8.6-5.2c1.3-3.6-0.1-10.5-8.3-16.1l-16-0.3
			C7,26.9,5.4,33.9,7.3,38.4S12,43.4,16.3,43.4z"/>
		
			<radialGradient id="path4318_1_" cx="-75.9126" cy="95.2154" r="8.6615" gradientTransform="matrix(1.3384 0 0 -1.3384 124.8768 146.2095)" gradientUnits="userSpaceOnUse">
			<stop  offset="0" style="stop-color:#040404"/>
			<stop  offset="1" style="stop-color:#040404;stop-opacity:0"/>
		</radialGradient>
		<path id="path4318" class="st8" d="M34.9,18.8c0,6.4-5.1,11.6-11.5,11.6s-11.6-5.1-11.6-11.5v-0.1c0-6.4,5.1-11.6,11.5-11.6
			s11.6,5.1,11.6,11.5V18.8z"/>
		
			<radialGradient id="path4320_1_" cx="169.9194" cy="-75.7882" r="17.986" gradientTransform="matrix(0.7475 0 0 -0.754 -102.9422 -49.2726)" gradientUnits="userSpaceOnUse">
			<stop  offset="0" style="stop-color:#FFFFFF"/>
			<stop  offset="1" style="stop-color:#D6D7D2"/>
		</radialGradient>
		<path id="path4320" class="st9" d="M35.1,14.1c0,6.4-5.1,11.6-11.5,11.6S12,20.6,12,14.2v-0.1c0-6.4,5.1-11.6,11.5-11.6
			S35.1,7.6,35.1,14C35.1,14.1,35.1,14.1,35.1,14.1z"/>
		<path id="path4322" class="st10" d="M34,14.1c0,5.8-4.7,10.5-10.5,10.6S13,20,12.9,14.2v-0.1c0-5.8,4.7-10.5,10.5-10.6
			C29.2,3.5,33.9,8.2,34,14C34,14.1,34,14.1,34,14.1z"/>
	</g>
	<g id="XMLID_9_" transform="matrix(0.71714,0,0,0.71744,-32.79375,1.5)">
		<path id="p1" class="st11" d="M85.2,52.6c0,6.4,5.2,11.6,11.5,11.6c6.4,0,11.6-5.2,11.6-11.6S103.1,41,96.7,41
			C90.4,41.1,85.2,46.2,85.2,52.6z"/>
		<path id="p2" class="st12" d="M84.1,51.9c0,6.4,5.2,11.6,11.6,11.6s11.6-5.2,11.6-11.6s-5.2-11.6-11.6-11.6
			C89.3,40.4,84.1,45.6,84.1,51.9z"/>
		
			<radialGradient id="p3_1_" cx="921.8265" cy="-392.7011" r="17.7541" gradientTransform="matrix(0.3688 0 0 -0.3693 -250.0896 -97.8104)" gradientUnits="userSpaceOnUse">
			<stop  offset="0" style="stop-color:#3169B3"/>
			<stop  offset="1" style="stop-color:#294091"/>
		</radialGradient>
		<path id="p3" class="st13" d="M84.9,51.8c0,5.9,4.8,10.7,10.7,10.7s10.7-4.8,10.7-10.7s-4.7-10.7-10.7-10.7
			C89.7,41.1,84.9,45.9,84.9,51.8z"/>
		<path id="p4" class="st14" d="M86.1,52.8c0-6.3,4.5-11.4,10.1-11.7c-0.2,0-0.4,0-0.6,0c-5.9,0-10.7,4.8-10.7,10.7
			c0,2.7,1,5.2,2.7,7.1C86.7,57.1,86.1,55,86.1,52.8z"/>
		
			<linearGradient id="p5_1_" gradientUnits="userSpaceOnUse" x1="937.1483" y1="-384.4768" x2="937.1483" y2="-394.0187" gradientTransform="matrix(0.3688 0 0 -0.3693 -250.0896 -97.8104)">
			<stop  offset="0" style="stop-color:#FFFFFF"/>
			<stop  offset="1" style="stop-color:#29408C"/>
		</linearGradient>
		<path id="p5" class="st15" d="M95.8,51.2c3.6,0,7-0.5,9.6-1.4c-0.8-5-4.9-8.8-9.8-8.8c-4.8,0-8.9,3.7-9.8,8.7
			C88.6,50.7,92,51.2,95.8,51.2z"/>
	</g>
	<path id="_x3F_" class="st16" d="M36.3,32.7c-1.9,0-4,0.8-4,2.7c0.1,1.2,1.2,1.6,2.1,1c0.2-0.2,0.4-0.5,0.4-0.8
		c0-0.4-0.2-0.6-0.4-0.7c-0.2-0.1-0.3-0.2-0.4-0.3c0.1-0.8,0.9-0.8,1.5-0.8c1.3,0,2.1,0.5,2.1,1.9c0.1,1.3-1.1,2.2-2.1,2.8
		c-0.5,0.3-0.5,0.6-0.4,1.3c0.1,0.8,0.1,1.2,0.2,1.4h0.9c0-0.7,0.1-1.5,0.3-1.8c0.4-0.6,1.5-0.5,2.7-1.8c1.1-1.2,0.9-3.1-0.6-4.1
		C37.7,32.9,37.1,32.7,36.3,32.7L36.3,32.7L36.3,32.7z M35.8,41.9c-0.7,0-1.3,0.6-1.3,1.3s0.6,1.3,1.3,1.3s1.3-0.6,1.3-1.3
		C37.1,42.5,36.5,41.9,35.8,41.9z"/>
</g>
</svg>
