<?xml version="1.0" encoding="utf-8"?>
<!-- Generator: Adobe Illustrator 15.0.0, SVG Export Plug-In . SVG Version: 6.00 Build 0)  -->
<!DOCTYPE svg PUBLIC "-//W3C//DTD SVG 1.1//EN" "http://www.w3.org/Graphics/SVG/1.1/DTD/svg11.dtd">
<svg version="1.1"
	 id="svg2108" xmlns:rdf="http://www.w3.org/1999/02/22-rdf-syntax-ns#" xmlns:cc="http://web.resource.org/cc/" xmlns:dc="http://purl.org/dc/elements/1.1/"
	 xmlns="http://www.w3.org/2000/svg" xmlns:xlink="http://www.w3.org/1999/xlink" x="0px" y="0px" width="48px" height="48px"
	 viewBox="0 0 48 48" enable-background="new 0 0 48 48" xml:space="preserve">
<path fill-rule="evenodd" clip-rule="evenodd" fill="#B00000" d="M41.714,33.871c-0.396-3.16-2.419-5.081-4.477-6.723
	c-1.994-1.59-4.086-3.028-6.335-4.408c-0.962-0.591-1.953-1.184-2.964-1.771c2.563-3.955,5.425-7.856,8.926-10.923
	c0.705-0.618,1.58-1.071,1.496-1.915c-0.105-1.057-1.84-1.45-3.65-1.316c-3.176,0.234-5.195,2.157-6.939,4.128
	c-1.691,1.91-3.232,3.927-4.726,6.103c-0.204,0.297-0.408,0.612-0.612,0.914c-1.219-0.625-2.442-1.231-3.667-1.793
	c-0.5-0.229-1.655-0.629-1.786-0.927l-7.557-4.834c-0.236,0.223-0.403,0.384-0.543,0.522c0.531-0.257-1.128,1.111,0,0
	c-0.158,0.077-0.501,0.292-1.187,0.771c-0.457,0.32-1.357,0.76-1.445,1.032c-0.099,0.316,0.05,0.976,0.073,1.435
	c0.082,1.588,0.146,2.864,0.223,4.362c4.412,1.357,8.47,3.004,12.391,4.889c-1.08,1.783-2.123,3.599-3.071,5.417
	c-0.254,0.487-0.714,1.621-1.017,1.735L9.634,37.87c0.21,0.247,0.363,0.422,0.494,0.569c-0.23-0.543,1.052,1.184,0,0
	c0.069,0.161,0.266,0.515,0.71,1.224c0.296,0.473,0.689,1.396,0.958,1.496c0.311,0.116,0.977,0,1.436,0c1.591,0,2.868,0,4.368,0
	c1.953-5.357,4.316-10.157,7.024-14.804c0.1,0.055,0.2,0.106,0.3,0.162c4.837,2.683,9.82,5.696,13.674,9.667
	c0.653,0.674,1.149,1.524,1.988,1.397C41.635,37.424,41.939,35.672,41.714,33.871z"/>
</svg>
