<?xml version="1.0" encoding="utf-8"?>
<!-- Generator: Adobe Illustrator 15.0.0, SVG Export Plug-In . SVG Version: 6.00 Build 0)  -->
<!DOCTYPE svg PUBLIC "-//W3C//DTD SVG 1.1//EN" "http://www.w3.org/Graphics/SVG/1.1/DTD/svg11.dtd">
<svg version="1.1"
	 id="svg2108" xmlns:rdf="http://www.w3.org/1999/02/22-rdf-syntax-ns#" xmlns:cc="http://web.resource.org/cc/" xmlns:dc="http://purl.org/dc/elements/1.1/"
	 xmlns="http://www.w3.org/2000/svg" xmlns:xlink="http://www.w3.org/1999/xlink" x="0px" y="0px" width="48px" height="48px"
	 viewBox="0 0 48 48" enable-background="new 0 0 48 48" xml:space="preserve">
<g>
	<path fill-rule="evenodd" clip-rule="evenodd" d="M40.351,11.82c1.643-0.738,2.698-2.063,4.285-2.856
		c0.094,6.69-0.203,13.772,0.179,20.175c-5.709-1.911-11.842-4.941-17.676-7.32c1.139-1.183,2.674-1.968,3.928-3.035
		c-3.12-6.601-14.895-4.671-16.604,1.785c-4.095-0.963-7.159-2.958-10.355-4.82C7.521,8.624,14.384,2.12,25.175,2.893
		C32.344,3.406,36.826,7.276,40.351,11.82z"/>
	<path fill-rule="evenodd" clip-rule="evenodd" d="M1.428,19.676c5.97,2.422,11.761,5.022,17.676,7.499
		c-1.331,1.049-2.717,2.044-4.106,3.035c3.369,6.551,14.794,4.617,16.783-1.785c3.991,1.009,7.126,2.872,10.178,4.82
		c-3.356,7.495-10.664,13.588-20.89,12.855c-7.032-0.504-11.944-4.428-15.354-8.928c-1.507,0.637-2.884,2.353-4.106,2.679
		C1.57,33.104,1.318,26.57,1.428,19.676z"/>
</g>
</svg>
