<?xml version="1.0" encoding="utf-8"?>
<!-- Generator: Adobe Illustrator 15.0.0, SVG Export Plug-In . SVG Version: 6.00 Build 0)  -->
<!DOCTYPE svg PUBLIC "-//W3C//DTD SVG 1.1//EN" "http://www.w3.org/Graphics/SVG/1.1/DTD/svg11.dtd">
<svg version="1.1"
	 id="svg2108" xmlns:rdf="http://www.w3.org/1999/02/22-rdf-syntax-ns#" xmlns:cc="http://web.resource.org/cc/" xmlns:dc="http://purl.org/dc/elements/1.1/"
	 xmlns="http://www.w3.org/2000/svg" xmlns:xlink="http://www.w3.org/1999/xlink" x="0px" y="0px" width="48px" height="48px"
	 viewBox="0 0 48 48" enable-background="new 0 0 48 48" xml:space="preserve">
<path stroke="#000000" stroke-miterlimit="10" d="M38.441,25.251c0.258-0.806,0.219-2.089,0.219-2.089s0.039-1.28-0.219-2.085
	l4.285-3.332c0,0,0.365-0.366,0-0.987l-3.881-6.665c0,0-0.475-0.731-1.648-0.219l-4.064,1.83c0,0-1.756-1.501-3.699-2.013
	L28.74,4.529c0,0,0-0.916-1.355-0.916h-3.367h-3.405c-1.355,0-1.355,0.916-1.355,0.916l-0.694,5.162
	c-1.942,0.512-3.699,2.013-3.699,2.013l-4.063-1.83c-1.171-0.512-1.646,0.219-1.646,0.219l-3.882,6.665
	c-0.366,0.621,0,0.987,0,0.987l4.283,3.332c-0.256,0.805-0.218,2.085-0.218,2.085S9.3,24.445,9.556,25.251l-4.283,3.33
	c0,0-0.366,0.365,0,0.987l3.882,6.664c0,0,0.476,0.733,1.646,0.22l4.063-1.829c0,0,1.756,1.5,3.699,2.014l0.694,5.161
	c0,0,0,0.916,1.355,0.916h3.366h0.039h3.367c1.355,0,1.355-0.916,1.355-0.916l0.693-5.161c1.943-0.514,3.699-2.014,3.699-2.014
	l4.064,1.829c1.174,0.514,1.648-0.22,1.648-0.22l3.881-6.664c0.365-0.622,0-0.987,0-0.987L38.441,25.251z M24.026,33.205h-0.053
	c-9.936-0.103-9.886-10.041-9.886-10.041s-0.05-9.937,9.886-10.04h0.053c9.937,0.104,9.888,10.04,9.888,10.04
	S33.963,33.103,24.026,33.205z"/>
</svg>
