<?xml version="1.0" encoding="utf-8"?>
<!-- Generator: Adobe Illustrator 19.2.1, SVG Export Plug-In . SVG Version: 6.00 Build 0)  -->
<svg version="1.1" id="Ebene_1" xmlns="http://www.w3.org/2000/svg" xmlns:xlink="http://www.w3.org/1999/xlink" x="0px" y="0px"
	 viewBox="0 0 700 700" style="enable-background:new 0 0 700 700;" xml:space="preserve">
<g>
	<path d="M50,623c0.8-7.2,1.7-14.5,2.5-21.7c2.4-20.3,7.6-39.8,17-58.1c4.2-8.2,11.2-13.1,18.2-17.9c18.1-12.3,38.2-20.3,59-26.2
		c31.6-9.1,63.4-17.6,95.2-26.4c2.4-0.7,4.7-1.4,7.7-2.3c-0.3,3.1-0.5,5.7-0.9,8.3c-2.9,22.6,2,43.5,12.5,63.6
		c11.4,22,23.3,43.7,38.8,63.3c13.1,16.6,28,31.1,45.8,42.5c3.2,2,5.5,1.7,8.5-0.2c20-12.7,36.1-29.3,50-48.2
		c16.9-22.8,30.3-47.7,41.4-73.7c7.1-16.5,6.7-33.7,4.9-51.1c-0.1-1.3-0.2-2.6-0.4-4.2c6.3,1.8,12.2,3.4,18.1,5
		c29.5,8.2,59.1,15.9,88.4,24.7c23.7,7.1,46.7,16.3,65.4,33c5.2,4.7,9,11.5,12,18c9.1,19.7,13.2,40.8,14.4,62.4
		c0.9,17.4,0.7,35,1.1,52.4c0,1.3,0.2,2.6,0.3,4c-200,0-400,0-600,0C50,654.3,50,638.7,50,623z"/>
	<path d="M365,30c8.4,1.3,16.7,2.4,25.1,3.9C435,42,472.8,62.3,501.5,98.3c14.7,18.4,24.6,39,27.8,62.6c0.5,3.6,0.6,7.3,0.6,11
		c0,22,0,44,0,66c0,7.1-4.1,12-9.9,12c-5.8,0-9.8-4.9-9.8-12c0-17.5-0.4-35,0.1-52.5c0.7-25.8-8.2-48.4-22.8-68.9
		C465,85,434.4,65,397.1,55.6c-37.4-9.5-74.7-8.2-111.1,5.3c-37.3,13.8-66,38.1-84.4,73.8c-7.7,15-12.2,30.9-11.8,48
		c0.3,14.5,0.1,29,0,43.5c0,2.9,0.8,4.6,3.2,6.6c3,2.6,5.7,6.1,7.4,9.7c2.4,5.1,3.8,10.6,5.8,15.9c0.6,1.6,1.5,3,2.3,4.5
		c0.5-0.1,0.9-0.3,1.4-0.4c-1-8.1-2.1-16.2-3.1-24.3c-2.8-25.3-3.2-50.5,3-75.5c6.4-26.2,21-46.8,42.6-62.5
		c34.4-25,73.4-32.5,115-29c25.8,2.2,50,9.4,71.9,23.4c18.9,12,34.3,27.5,43.7,48.1c7.8,17,11,35.2,11.8,53.8
		c0.8,20.6-1.4,40.9-4.3,61.2c-0.2,1.6-0.4,3.2-0.6,4.8c13.8,3.2,19.1,8.8,19.6,23.1c0.9,22.9-5.9,43.3-22.6,59.8
		c-1,1-1.7,2.4-2.3,3.7c-11.1,24.1-23.1,47.6-39.5,68.6c-15.2,19.4-32.8,36-56.2,45c-33.5,12.9-65.7,9.6-96.1-9.2
		c-20.2-12.5-35.8-29.9-48.1-49.9c-10.2-16.7-18.9-34.4-28.2-51.6c-0.8-1.4-1.5-2.9-2.2-4.2c-0.6,0-1-0.2-1.3-0.1
		c-17.5,6.9-31.1-0.3-40.2-14.1c-12.7-19.4-20.8-41.4-22.6-64.7c-1-14.1,4.5-26.1,18-33.1c1-0.5,1.8-2.6,1.8-3.9
		c0.1-18.7,0.2-37.3-0.1-56c-0.5-26.1,8.4-49,23.1-69.9c26.5-37.6,63.4-59.5,107.5-70c9.7-2.3,19.7-3,29.6-4.5
		c1.6-0.2,3.2-0.7,4.8-1.1C345,30,355,30,365,30z M310.8,384c5-11.5,14.2-14.9,25.7-13.9c4.5,0.4,9,0,13.5,0.1
		c10.9,0.2,19.8,9.1,19.9,19.7c0.1,10.9-8.8,20-20,20c-11.4,0-22.6-0.2-34-3.3c-18.3-5-36-10.7-52.3-20.3c-3.4-2-6.9-4-10.4-6.1
		c-0.4,0.4-0.8,0.7-1.2,1.1c6.1,9.4,11.8,19.2,18.3,28.3c9.2,12.8,20.5,23.6,34.8,30.8c15.8,8,32.5,10.2,49.9,9.7
		c28.3-0.8,51.4-12.1,69.4-33.9c17.8-21.5,29.3-46.7,40.7-71.8c2-4.3,3.9-9.2,7.3-12.3c8.7-7.9,13.4-17.8,16-28.7
		c1.4-5.9,1.4-12.2,1.5-18.3c0-5.5-4.8-12.3-9.3-13.1c-5.8-1-8.7,3.4-11,7.6c-3.3,5.9-6.2,12-9.7,18.9c4.3-23,9.8-45,10.2-67.9
		c-1.8-0.2-2.9-0.4-4.1-0.5c-24.9-0.7-49.5-3.6-73.7-9.1c-28.2-6.4-54.5-17.2-77.4-35.3c-7.4-5.9-14.2-12.5-21.5-18.5
		c-2-1.7-4.9-4-7-3.7c-5.5,0.8-11.1,2.3-16.2,4.6c-16,7.4-26.5,20.5-35.4,35.4c-4,6.8-5.9,13.6-5,21.3c1.9,17,3.6,34,5.7,51
		c0.9,7.3,2.9,14.5,4.3,21.8c-2.1-3.1-3.2-6.7-5.1-9.8c-3.1-5.1-6.4-10-10.2-14.6c-2.1-2.6-5.4-2.1-8.1,0c-2.6,1.9-3.6,4-2.2,7.3
		c1.5,3.3,2.5,6.9,3.6,10.3c4.3,13.7,8.6,27.5,12.9,41.3c0.3,0.9,0.8,1.8,1.4,2.6C253.5,358.6,279.2,375.2,310.8,384z"/>
	<path d="M350.1,490.1c2.7,0,5.4,0.4,8-0.1c12.2-2.3,19.7,4.8,26.6,13.1c5.4,6.5,5.6,6.8,0.5,13.6c-4.1,5.4-8.8,10.3-13.5,15.3
		c-2.3,2.4-3.4,4.3-1.9,7.8c6.2,15.1,12,30.3,18.3,45.3c1.6,3.7,1.2,6.2-1.1,9.4c-9.5,13-21.2,23.8-34.3,33.2c-1.2,0.8-3.9,1-5,0.2
		c-13.5-9.3-25.8-19.9-35-33.7c-2-3-2.1-5.4-0.7-8.7c6.3-15,12.1-30.3,18.3-45.3c1.3-3.2,0.4-4.9-1.8-7.3
		c-5.8-6.3-11.2-13.1-16.5-19.9c-0.9-1.1-0.7-4.4,0.3-5.5c5-5.5,10.4-10.7,15.9-15.8c1.2-1.1,3.3-1.5,5-1.5
		C338.8,490,344.4,490.1,350.1,490.1z"/>
</g>
</svg>
