<?xml version="1.0" encoding="utf-8"?>
<!-- Generator: Adobe Illustrator 15.0.0, SVG Export Plug-In . SVG Version: 6.00 Build 0)  -->
<!DOCTYPE svg PUBLIC "-//W3C//DTD SVG 1.1//EN" "http://www.w3.org/Graphics/SVG/1.1/DTD/svg11.dtd">
<svg version="1.1"
	 id="svg2108" xmlns:rdf="http://www.w3.org/1999/02/22-rdf-syntax-ns#" xmlns:cc="http://web.resource.org/cc/" xmlns:dc="http://purl.org/dc/elements/1.1/"
	 xmlns="http://www.w3.org/2000/svg" xmlns:xlink="http://www.w3.org/1999/xlink" x="0px" y="0px" width="48px" height="48px"
	 viewBox="0 0 48 48" enable-background="new 0 0 48 48" xml:space="preserve">
<filter  height="1.5669" width="1.1522" y="-.28345" x="-.076111" id="filter5655">
	<feGaussianBlur  id="feGaussianBlur5657" stdDeviation="1.4531044"></feGaussianBlur>
</filter>
<g id="layer1">
	
		<linearGradient id="path4173_1_" gradientUnits="userSpaceOnUse" x1="-163.2974" y1="439.5742" x2="-163.2974" y2="445.8216" gradientTransform="matrix(1.3384 0 0 1.3384 234.7625 -567.9802)">
		<stop  offset="0" style="stop-color:#FFFFFF"/>
		<stop  offset="1" style="stop-color:#C9C9C9"/>
	</linearGradient>
	<path id="path4173" fill="url(#path4173_1_)" d="M13.365,26.342h5.679l-3.313-3.075l-0.709,0.946l-0.71-0.71L13.365,26.342z"/>
	
		<linearGradient id="path4370_1_" gradientUnits="userSpaceOnUse" x1="-1262.9912" y1="560.6865" x2="-1264.2699" y2="560.0367" gradientTransform="matrix(-1.3085 0.2812 0.2812 1.3085 -1791.6763 -350.52)">
		<stop  offset="0" style="stop-color:#000000"/>
		<stop  offset="1" style="stop-color:#000000;stop-opacity:0"/>
	</linearGradient>
	<path id="path4370" opacity="0.2279" fill="url(#path4370_1_)" enable-background="new    " d="M19.883,33.982
		c1.648-0.777,2.415-2.68,2.415-2.68c-1.284-5.412-5.322-9.159-5.322-9.159S20.275,30.633,19.883,33.982z"/>
</g>
<g id="layer2">
	<g id="rect4608" opacity="0.3486" filter="url(#filter5655)" enable-background="new    ">
		<path d="M11.335,36.92h26.121c2.647,0,4.794,2.146,4.794,4.795l0,0c0,2.646-2.146,4.793-4.794,4.793H11.335
			c-2.648,0-4.794-2.146-4.794-4.793l0,0C6.541,39.066,8.687,36.92,11.335,36.92z"/>
	</g>
	
		<radialGradient id="path4308_1_" cx="-182.708" cy="428.4336" r="17.9848" gradientTransform="matrix(1.3545 0 0 1.3664 272.0612 -557.1501)" gradientUnits="userSpaceOnUse">
		<stop  offset="0" style="stop-color:#FFFFFF"/>
		<stop  offset="1" style="stop-color:#D6D6D2"/>
	</radialGradient>
	<path id="path4308" fill="url(#path4308_1_)" stroke="#888A85" stroke-linecap="round" stroke-linejoin="round" d="M17.919,45.01
		h14.194c4.023,0,8.005-1.477,9.465-5.68c1.386-3.99,0.236-11.592-8.754-17.743H16.026c-8.99,5.679-10.114,13.442-8.043,17.979
		C10.091,44.189,13.66,45.01,17.919,45.01z"/>
	
		<linearGradient id="path4364_1_" gradientUnits="userSpaceOnUse" x1="-1262.9922" y1="560.6855" x2="-1264.2711" y2="560.0356" gradientTransform="matrix(-1.3085 0.2812 0.2812 1.3085 -1773.356 -341.5454)">
		<stop  offset="0" style="stop-color:#000000"/>
		<stop  offset="1" style="stop-color:#000000;stop-opacity:0"/>
	</linearGradient>
	<path id="path4364" opacity="0.2912" fill="url(#path4364_1_)" enable-background="new    " d="M38.204,42.955
		c1.647-0.775,2.415-2.68,2.415-2.68c-1.284-5.41-5.322-9.158-5.322-9.158S38.596,39.607,38.204,42.955z"/>
	
		<linearGradient id="path4354_1_" gradientUnits="userSpaceOnUse" x1="-114.9248" y1="330.4189" x2="-112.9605" y2="330.8188" gradientTransform="matrix(1.3161 0.243 -0.243 1.3161 241.2853 -370.6419)">
		<stop  offset="0" style="stop-color:#000000"/>
		<stop  offset="1" style="stop-color:#000000;stop-opacity:0"/>
	</linearGradient>
	<path id="path4354" opacity="0.5494" fill="url(#path4354_1_)" enable-background="new    " d="M11.643,43.537
		c-1.67-0.729-2.417-2.486-2.417-2.486c1.126-5.445,4.979-9.43,4.979-9.43S11.154,40.201,11.643,43.537z"/>
	
		<path id="path4314" opacity="0.6429" fill="none" stroke="#FFFFFF" stroke-linecap="round" stroke-linejoin="round" enable-background="new    " d="
		M17.593,43.975l14.528-0.031c3.654,0,7.273-1.34,8.6-5.158c1.258-3.627-0.132-10.533-8.301-16.124l-15.956-0.337
		C8.296,27.484,6.714,34.539,8.626,39C10.537,43.459,13.326,43.943,17.593,43.975z"/>
	
		<radialGradient id="path4318_1_" cx="-169.3066" cy="429.0303" r="8.6619" gradientTransform="matrix(1.3384 0 0 1.3384 251.2137 -554.8024)" gradientUnits="userSpaceOnUse">
		<stop  offset="0" style="stop-color:#000000"/>
		<stop  offset="1" style="stop-color:#000000;stop-opacity:0"/>
	</radialGradient>
	<path id="path4318" fill="url(#path4318_1_)" d="M36.208,19.411c0.03,6.402-5.135,11.619-11.538,11.65
		c-6.402,0.031-11.618-5.136-11.648-11.539c0-0.037,0-0.074,0-0.111c-0.031-6.402,5.134-11.618,11.537-11.649
		C30.961,7.73,36.178,12.896,36.208,19.3C36.208,19.337,36.208,19.374,36.208,19.411z"/>
	
		<radialGradient id="path4320_1_" cx="297.9512" cy="745.5215" r="17.9858" gradientTransform="matrix(0.7475 0 0 0.754 -197.3062 -553.6337)" gradientUnits="userSpaceOnUse">
		<stop  offset="0" style="stop-color:#FFFFFF"/>
		<stop  offset="1" style="stop-color:#D6D6D2"/>
	</radialGradient>
	
		<path id="path4320" fill="url(#path4320_1_)" stroke="#888A85" stroke-width="0.7472" stroke-linecap="round" stroke-linejoin="round" d="
		M36.375,14.727c0.031,6.402-5.135,11.619-11.537,11.648c-6.403,0.031-11.619-5.134-11.649-11.537c0-0.037,0-0.074,0-0.111
		c-0.031-6.403,5.134-11.618,11.538-11.65c6.402-0.031,11.617,5.135,11.648,11.538C36.375,14.652,36.375,14.689,36.375,14.727z"/>
	
		<path id="path4322" opacity="0.1962" fill="none" stroke="#FFFFFF" stroke-width="0.823" stroke-linecap="round" stroke-linejoin="round" enable-background="new    " d="
		M35.305,14.726c0.027,5.812-4.662,10.548-10.475,10.576c-5.813,0.028-10.548-4.662-10.576-10.475c0-0.034,0-0.067,0-0.101
		C14.226,8.913,18.916,4.178,24.729,4.15c5.812-0.028,10.549,4.662,10.576,10.475C35.305,14.658,35.305,14.692,35.305,14.726z"/>
</g>
<g>
	<g id="Layer_7_2_">
		<path d="M40.735,14.483c0-2.134-1-4.032-2.556-5.257V7.495c-7.416-5.99-5.94-6.003-13.034-6.003
			c-7.094,0-7.159,0.242-12.699,6.003v1.269c-1.931,1.172-3.22,3.295-3.22,5.719c0,3.694,1.941,6.85,5.636,6.85
			c0,0-2.63-4.158,0.336-12.681c0.096-0.602-0.223-0.805-0.67-0.711l0.515-0.53c3.795-3.529,4.597-5,9.935-4.778
			c5.69,0.237,4.856,0.214,9.106,3.57l2.014,1.916c-0.646-0.208-2.113-0.389-2.559-0.376c4.653,6.961,1.07,12.376,1.07,12.376
			c-0.514,0.236-0.764,0.289-1.008,0.401c-2.055,0.63-1.296,0.041-4.57,0.663c-0.215-0.238-0.521-0.392-0.867-0.392h-2.086
			c-0.646,0-1.17,0.524-1.17,1.171s0.523,1.17,1.17,1.17h2.088c0.5,0,0.924-0.316,1.092-0.76c4.603-0.867,7.045-0.342,7.537-1.798
			C39.116,19.526,40.735,17.196,40.735,14.483z"/>
	</g>
</g>
</svg>
