<?xml version="1.0" encoding="utf-8"?>
<!-- Generator: Adobe Illustrator 19.0.0, SVG Export Plug-In . SVG Version: 6.00 Build 0)  -->
<svg version="1.1" id="Ebene_1" xmlns="http://www.w3.org/2000/svg" xmlns:xlink="http://www.w3.org/1999/xlink" x="0px" y="0px"
	 viewBox="0 0 575.6 446" style="enable-background:new 0 0 575.6 446;" xml:space="preserve">
<style type="text/css">
	.st0{fill:#010101;}
</style>
<g>
	<path class="st0" d="M199.1,428.3c-10.5-20.1-15.4-41-12.5-63.6c0.4-2.6,0.6-5.2,0.9-8.3c-3,0.9-5.3,1.6-7.7,2.3
		c-31.8,8.8-63.6,17.3-95.2,26.4c-20.8,5.9-40.9,13.9-59,26.2c-7,4.8-14,9.7-18.2,17.9C4.5,434.7,2.1,440.3,0,446h208.5
		C205.3,440.1,202.1,434.2,199.1,428.3z"/>
	<path class="st0" d="M572,437.4c-3-6.5-6.8-13.3-12-18c-18.7-16.7-41.7-25.9-65.4-33c-29.3-8.8-58.9-16.5-88.4-24.7
		c-5.9-1.6-11.8-3.2-18.1-5c0.2,1.6,0.3,2.9,0.4,4.2c1.8,17.4,2.2,34.6-4.9,51.1c-4.9,11.6-10.3,22.9-16.3,34h208.3
		C574.5,443.1,573.3,440.2,572,437.4z"/>
	<path class="st0" d="M575.6,446H367.3"/>
	<path class="st0" d="M423.5,0h26.8"/>
	<path class="st0" d="M450.3,0h-26.8c0.6,0.8,1.2,1.7,1.8,2.5C440,23,448.9,45.6,448.2,71.4c-0.5,17.5-0.1,35-0.1,52.5
		c0,7.1,4,12,9.8,12s9.9-4.9,9.9-12c0-22,0-44,0-66c0-3.7-0.1-7.4-0.6-11C464.8,29.8,459,14.3,450.3,0z"/>
	<path class="st0" d="M125.6,0h26.6"/>
	<path class="st0" d="M174.4,0h226.8"/>
	<path class="st0" d="M427.8,148.5c0.2-1.6,0.4-3.2,0.6-4.8c2.9-20.3,5.1-40.6,4.3-61.2c-0.8-18.6-4-36.8-11.8-53.8
		c-5-10.9-11.7-20.4-19.7-28.7H174.4c-13,13.4-22,29.6-26.7,48.7c-6.2,25-5.8,50.2-3,75.5c1,8.1,2.1,16.2,3.1,24.3
		c-0.5,0.1-0.9,0.3-1.4,0.4c-0.8-1.5-1.7-2.9-2.3-4.5c-2-5.3-3.4-10.8-5.8-15.9c-1.7-3.6-4.4-7.1-7.4-9.7c-2.4-2-3.2-3.7-3.2-6.6
		c0.1-14.5,0.3-29,0-43.5c-0.4-17.1,4.1-33,11.8-48c3.8-7.4,8.1-14.3,12.8-20.7h-26.6c-2,3.2-3.8,6.4-5.4,9.7
		c-8.2,16-12.8,33.3-12.4,52.2c0.3,18.7,0.2,37.3,0.1,56c0,1.3-0.8,3.4-1.8,3.9c-13.5,7-19,19-18,33.1c1.8,23.3,9.9,45.3,22.6,64.7
		c9.1,13.8,22.7,21,40.2,14.1c0.3-0.1,0.7,0.1,1.3,0.1c0.7,1.3,1.4,2.8,2.2,4.2c9.3,17.2,18,34.9,28.2,51.6
		c12.3,20,27.9,37.4,48.1,49.9c30.4,18.8,62.6,22.1,96.1,9.2c23.4-9,41-25.6,56.2-45c16.4-21,28.4-44.5,39.5-68.6
		c0.6-1.3,1.3-2.7,2.3-3.7c16.7-16.5,23.5-36.9,22.6-59.8C446.9,157.3,441.6,151.7,427.8,148.5z M426.3,189.4
		c-2.6,10.9-7.3,20.8-16,28.7c-3.4,3.1-5.3,8-7.3,12.3c-11.4,25.1-22.9,50.3-40.7,71.8c-18,21.8-41.1,33.1-69.4,33.9
		c-17.4,0.5-34.1-1.7-49.9-9.7c-14.3-7.2-25.6-18-34.8-30.8c-6.5-9.1-12.2-18.9-18.3-28.3c0.4-0.4,0.8-0.7,1.2-1.1
		c3.5,2.1,7,4.1,10.4,6.1c16.3,9.6,34,15.3,52.3,20.3c11.4,3.1,22.6,3.3,34,3.3c11.2,0,20.1-9.1,20-20c-0.1-10.6-9-19.5-19.9-19.7
		c-4.5-0.1-9,0.3-13.5-0.1c-11.5-1-20.7,2.4-25.7,13.9c-31.6-8.8-57.3-25.4-78.7-49.3c-0.6-0.8-1.1-1.7-1.4-2.6
		c-4.3-13.8-8.6-27.6-12.9-41.3c-1.1-3.4-2.1-7-3.6-10.3c-1.4-3.3-0.4-5.4,2.2-7.3c2.7-2.1,6-2.6,8.1,0c3.8,4.6,7.1,9.5,10.2,14.6
		c1.9,3.1,3,6.7,5.1,9.8c-1.4-7.3-3.4-14.5-4.3-21.8c-2.1-17-3.8-34-5.7-51c-0.9-7.7,1-14.5,5-21.3c8.9-14.9,19.4-28,35.4-35.4
		c5.1-2.3,10.7-3.8,16.2-4.6c2.1-0.3,5,2,7,3.7c7.3,6,14.1,12.6,21.5,18.5c22.9,18.1,49.2,28.9,77.4,35.3
		c24.2,5.5,48.8,8.4,73.7,9.1c1.2,0.1,2.3,0.3,4.1,0.5c-0.4,22.9-5.9,44.9-10.2,67.9c3.5-6.9,6.4-13,9.7-18.9
		c2.3-4.2,5.2-8.6,11-7.6c4.5,0.8,9.3,7.6,9.3,13.1C427.7,177.2,427.7,183.5,426.3,189.4z"/>
	<path class="st0" d="M307.7,425.8c-1.5-3.5-0.4-5.4,1.9-7.8c4.7-5,9.4-9.9,13.5-15.3c5.1-6.8,4.9-7.1-0.5-13.6
		c-6.9-8.3-14.4-15.4-26.6-13.1c-2.6,0.5-5.3,0.1-8,0.1c-5.7,0-11.3-0.1-16.9,0.1c-1.7,0-3.8,0.4-5,1.5
		c-5.5,5.1-10.9,10.3-15.9,15.8c-1,1.1-1.2,4.4-0.3,5.5c5.3,6.8,10.7,13.6,16.5,19.9c2.2,2.4,3.1,4.1,1.8,7.3
		c-2.7,6.6-5.3,13.2-8,19.8h55.6C313.1,439.3,310.4,432.5,307.7,425.8z"/>
</g>
</svg>
