<?xml version="1.0" encoding="utf-8"?>
<!-- Generator: Adobe Illustrator 15.0.0, SVG Export Plug-In . SVG Version: 6.00 Build 0)  -->
<!DOCTYPE svg PUBLIC "-//W3C//DTD SVG 1.1//EN" "http://www.w3.org/Graphics/SVG/1.1/DTD/svg11.dtd">
<svg version="1.1"
	 id="svg2108" xmlns:rdf="http://www.w3.org/1999/02/22-rdf-syntax-ns#" xmlns:cc="http://web.resource.org/cc/" xmlns:dc="http://purl.org/dc/elements/1.1/"
	 xmlns="http://www.w3.org/2000/svg" xmlns:xlink="http://www.w3.org/1999/xlink" x="0px" y="0px" width="48px" height="48px"
	 viewBox="0 0 48 48" enable-background="new 0 0 48 48" xml:space="preserve">
<g id="qOyGl9_1_">
	<g>
		<path fill-rule="evenodd" clip-rule="evenodd" fill="#00A100" d="M20.709,41.172c-1.5,0-2.777,0-4.368,0
			c-0.459,0-1.125,0.116-1.436,0c-0.268-0.101-0.661-1.023-0.958-1.496c-2.12-3.381-5.008-6.561-7.419-9.394
			c2.034-1.417,4.105-2.795,6.223-4.128c0.849,1.389,1.765,2.982,3.291,3.948c0.413,0.262,1.314,0.705,1.915,0.479
			c0.303-0.114,0.763-1.248,1.017-1.735c2.121-4.063,4.675-8.139,7.18-11.787c1.494-2.176,3.035-4.193,4.727-6.103
			c1.745-1.972,3.764-3.895,6.94-4.128c1.811-0.133,3.545,0.26,3.649,1.316c0.084,0.843-0.79,1.296-1.496,1.915
			c-4.162,3.646-7.425,8.47-10.351,13.163C26.109,28.861,23.105,34.599,20.709,41.172z"/>
	</g>
</g>
</svg>
