<?xml version="1.0" encoding="utf-8"?>
<!-- Generator: Adobe Illustrator 21.0.2, SVG Export Plug-In . SVG Version: 6.00 Build 0)  -->
<svg version="1.1" id="Ebene_1" xmlns="http://www.w3.org/2000/svg"  x="0px" y="0px"
	 viewBox="0 0 48 48" style="enable-background:new 0 0 48 48;" xml:space="preserve">
<style type="text/css">
	.st0{fill:none;}
	.st1{fill:none;stroke:#FFFFFF;stroke-width:7.4578;stroke-linejoin:round;}
</style>
<path id="path12" class="st0" d="M48,48H0V0h48V48z"/>
<path id="path7" class="st1" d="M42.8,22.9l-2.4-8.1l-5.6,1.6c-1.1-1.6-2.7-3-4.4-4l0.9-5.5l-9.2-1.2L21.3,11
	c-0.3,0.1-0.7,0.2-1,0.3c-1.2,0.3-2.3,0.9-3.3,1.5l-4.3-3.3L7,16.4l4.5,3.5c-0.4,1.1-0.6,2.3-0.6,3.6l-5.6,1.6l2.4,8.1l5.6-1.6
	c1.1,1.6,2.7,3,4.4,4l-0.9,5.5l9.2,1.2l0.8-5.3c0.3-0.1,0.7-0.2,1-0.3c1.2-0.3,2.3-0.9,3.3-1.5l4.3,3.3l5.7-6.9l-4.5-3.5
	c0.4-1.1,0.6-2.3,0.6-3.6L42.8,22.9L42.8,22.9z M25.3,28.8c-2.8,0.8-5.8-0.8-6.7-3.6s0.8-5.8,3.6-6.7c2.8-0.8,5.8,0.8,6.7,3.6
	C29.7,24.9,28.1,27.9,25.3,28.8z"/>
<path id="path9" d="M42.8,22.9l-2.4-8.1l-5.6,1.6c-1.1-1.6-2.7-3-4.4-4l0.9-5.5l-9.2-1.2L21.3,11c-0.3,0.1-0.7,0.2-1,0.3
	c-1.2,0.3-2.3,0.9-3.3,1.5l-4.3-3.3L7,16.4l4.5,3.5c-0.4,1.1-0.6,2.3-0.6,3.6l-5.6,1.6l2.4,8.1l5.6-1.6c1.1,1.6,2.7,3,4.4,4
	l-0.9,5.5l9.2,1.2l0.8-5.3c0.3-0.1,0.7-0.2,1-0.3c1.2-0.3,2.3-0.9,3.3-1.5l4.3,3.3l5.7-6.9l-4.5-3.5c0.4-1.1,0.6-2.3,0.6-3.6
	L42.8,22.9L42.8,22.9z M25.3,28.8c-2.8,0.8-5.8-0.8-6.7-3.6s0.8-5.8,3.6-6.7c2.8-0.8,5.8,0.8,6.7,3.6C29.7,24.9,28.1,27.9,25.3,28.8
	z"/>
</svg>
